<?xml version="1.0" encoding="utf-8" standalone="no"?>
<!DOCTYPE svg PUBLIC "-//W3C//DTD SVG 1.1//EN"
  "http://www.w3.org/Graphics/SVG/1.1/DTD/svg11.dtd">
<!-- Created with matplotlib (http://matplotlib.org/) -->
<svg height="221pt" version="1.1" viewBox="0 0 431 221" width="431pt" xmlns="http://www.w3.org/2000/svg" xmlns:xlink="http://www.w3.org/1999/xlink">
 <defs>
  <style type="text/css">
*{stroke-linecap:butt;stroke-linejoin:round;}
  </style>
 </defs>
 <g id="figure_1">
  <g id="patch_1">
   <path d="
M0 221.864
L431.73 221.864
L431.73 2.84217e-14
L0 2.84217e-14
L0 221.864" style="fill:none;"/>
  </g>
  <g id="axes_1">
   <g id="patch_2">
    <path d="
M89.7304 174.6
L424.53 174.6
L424.53 7.2
L89.7304 7.2
L89.7304 174.6" style="fill:none;"/>
   </g>
   <g id="patch_3">
    <path clip-path="url(#p3f3dc29a7b)" d="
M95.3104 169.02
L139.95 169.02
L139.95 124.38
L95.3104 124.38
z
" style="fill:#f2faef;stroke:#005321;stroke-linejoin:miter;"/>
   </g>
   <g id="patch_4">
    <path clip-path="url(#p3f3dc29a7b)" d="
M95.3104 113.22
L139.95 113.22
L139.95 68.58
L95.3104 68.58
z
" style="fill:#f7fcf5;stroke:#005321;stroke-linejoin:miter;"/>
   </g>
   <g id="patch_5">
    <path clip-path="url(#p3f3dc29a7b)" d="
M151.11 169.02
L195.75 169.02
L195.75 124.38
L151.11 124.38
z
" style="fill:#006729;stroke:#005321;stroke-linejoin:miter;"/>
   </g>
   <g id="patch_6">
    <path clip-path="url(#p3f3dc29a7b)" d="
M151.11 113.22
L195.75 113.22
L195.75 68.58
L151.11 68.58
z
" style="fill:#00441b;stroke:#005321;stroke-linejoin:miter;"/>
   </g>
   <g id="patch_7">
    <path clip-path="url(#p3f3dc29a7b)" d="
M151.11 57.42
L195.75 57.42
L195.75 12.78
L151.11 12.78
z
" style="fill:#319a50;stroke:#005321;stroke-linejoin:miter;"/>
   </g>
   <g id="patch_8">
    <path clip-path="url(#p3f3dc29a7b)" d="
M262.71 169.02
L307.35 169.02
L307.35 124.38
L262.71 124.38
z
" style="fill:#f6fcf4;stroke:#005321;stroke-linejoin:miter;"/>
   </g>
   <g id="patch_9">
    <path clip-path="url(#p3f3dc29a7b)" d="
M318.51 169.02
L363.15 169.02
L363.15 124.38
L318.51 124.38
z
" style="fill:#f5fbf3;stroke:#005321;stroke-linejoin:miter;"/>
   </g>
   <g id="patch_10">
    <path clip-path="url(#p3f3dc29a7b)" d="
M318.51 113.22
L363.15 113.22
L363.15 68.58
L318.51 68.58
z
" style="fill:#f6fcf4;stroke:#005321;stroke-linejoin:miter;"/>
   </g>
   <g id="patch_11">
    <path clip-path="url(#p3f3dc29a7b)" d="
M318.51 57.42
L363.15 57.42
L363.15 12.78
L318.51 12.78
z
" style="fill:#f2faf0;stroke:#005321;stroke-linejoin:miter;"/>
   </g>
   <g id="patch_12">
    <path clip-path="url(#p3f3dc29a7b)" d="
M374.31 169.02
L418.95 169.02
L418.95 124.38
L374.31 124.38
z
" style="fill:#d8f0d2;stroke:#005321;stroke-linejoin:miter;"/>
   </g>
   <g id="patch_13">
    <path clip-path="url(#p3f3dc29a7b)" d="
M374.31 113.22
L418.95 113.22
L418.95 68.58
L374.31 68.58
z
" style="fill:#e5f5e1;stroke:#005321;stroke-linejoin:miter;"/>
   </g>
   <g id="patch_14">
    <path clip-path="url(#p3f3dc29a7b)" d="
M374.31 57.42
L418.95 57.42
L418.95 12.78
L374.31 12.78
z
" style="fill:#94d390;stroke:#005321;stroke-linejoin:miter;"/>
   </g>
   <g id="patch_15">
    <path d="
M89.7304 7.2
L424.53 7.2" style="fill:none;stroke:#000000;stroke-linecap:square;stroke-linejoin:miter;"/>
   </g>
   <g id="patch_16">
    <path d="
M424.53 174.6
L424.53 7.2" style="fill:none;stroke:#000000;stroke-linecap:square;stroke-linejoin:miter;"/>
   </g>
   <g id="patch_17">
    <path d="
M89.7304 174.6
L89.7304 7.2" style="fill:none;stroke:#000000;stroke-linecap:square;stroke-linejoin:miter;"/>
   </g>
   <g id="patch_18">
    <path d="
M89.7304 174.6
L424.53 174.6" style="fill:none;stroke:#000000;stroke-linecap:square;stroke-linejoin:miter;"/>
   </g>
   <g id="matplotlib.axis_1">
    <g id="xtick_1">
     <g id="line2d_1">
      <defs>
       <path d="
M0 0
L0 -4" id="mc7db9fdffb" style="stroke:#000000;stroke-width:0.5;"/>
      </defs>
      <g>
       <use style="stroke:#000000;stroke-width:0.5;" x="117.630375" xlink:href="#mc7db9fdffb" y="174.6"/>
      </g>
     </g>
     <g id="line2d_2">
      <defs>
       <path d="
M0 0
L0 4" id="m5a7d422ac3" style="stroke:#000000;stroke-width:0.5;"/>
      </defs>
      <g>
       <use style="stroke:#000000;stroke-width:0.5;" x="117.630375" xlink:href="#m5a7d422ac3" y="7.2"/>
      </g>
     </g>
     <g id="text_1">
      <!-- 2.6 -->
      <defs>
       <path d="
M4 4.90625
Q11.2031 12.0938 16.7969 17.8906
Q22.4062 23.7031 26.2031 28.6406
Q30 33.5938 32 37.75
Q34 41.9062 34 45.7969
Q34 51.2969 31 54.7969
Q28 58.2969 21.9062 58.2969
Q17.9062 58.2969 14.5 56.0469
Q11.0938 53.7969 8.29688 50.5938
L3.59375 55.2969
Q7.59375 59.7031 12.0938 62.3438
Q16.5938 65 22.9062 65
Q31.7969 65 36.8906 59.8438
Q42 54.7031 42 46.2031
Q42 41.7031 40.0469 37.1406
Q38.0938 32.5938 34.6406 27.75
Q31.2031 22.9062 26.4531 17.6562
Q21.7031 12.4062 16 6.5
Q18.5938 6.70312 21.3906 6.89062
Q24.2031 7.09375 26.7031 7.09375
L45.2031 7.09375
L45.2031 0
L4 0
z
" id="SourceSansPro-Regular-32"/>
       <path d="
M26.7969 5.29688
Q29.2031 5.29688 31.2031 6.29688
Q33.2031 7.29688 34.7031 9.14062
Q36.2031 11 37.0469 13.5469
Q37.9062 16.0938 37.9062 19.2969
Q37.9062 25.5938 35 29.1875
Q32.0938 32.7969 26.0938 32.7969
Q23.0938 32.7969 19.5469 30.8438
Q16 28.9062 12.7969 24.4062
Q13.5938 15 17.1406 10.1406
Q20.7031 5.29688 26.7969 5.29688
M39.9062 53.0938
Q37.9062 55.4062 35.1562 56.75
Q32.4062 58.0938 29.4062 58.0938
Q26.0938 58.0938 23.0938 56.6875
Q20.0938 55.2969 17.7969 52.0938
Q15.5 48.9062 14.0938 43.75
Q12.7031 38.5938 12.5938 31
Q15.5938 34.7031 19.5938 36.8438
Q23.5938 39 27.5 39
Q35.7969 39 40.75 34.0938
Q45.7031 29.2031 45.7031 19.2969
Q45.7031 14.7031 44.2031 10.9531
Q42.7031 7.20312 40.0938 4.5
Q37.5 1.79688 34.0938 0.296875
Q30.7031 -1.20312 26.7969 -1.20312
Q22.0938 -1.20312 18.0938 0.6875
Q14.0938 2.59375 11.1406 6.4375
Q8.20312 10.2969 6.5 16.0469
Q4.79688 21.7969 4.79688 29.5
Q4.79688 39.0938 6.79688 45.8438
Q8.79688 52.5938 12.1875 56.8438
Q15.5938 61.0938 19.9375 63.0469
Q24.2969 65 29.0938 65
Q34.2969 65 38.0469 63.0469
Q41.7969 61.0938 44.5 58.2031
z
" id="SourceSansPro-Regular-36"/>
       <path d="
M6.5 5
Q6.5 7.90625 8.25 9.65625
Q10 11.4062 12.5 11.4062
Q14.9062 11.4062 16.6562 9.65625
Q18.4062 7.90625 18.4062 5
Q18.4062 2.29688 16.6562 0.546875
Q14.9062 -1.20312 12.5 -1.20312
Q10 -1.20312 8.25 0.546875
Q6.5 2.29688 6.5 5" id="SourceSansPro-Regular-2e"/>
      </defs>
      <g transform="translate(114.829569234 194.545699857)rotate(-45.0)scale(0.12 -0.12)">
       <use xlink:href="#SourceSansPro-Regular-32"/>
       <use x="49.69999694824219" xlink:href="#SourceSansPro-Regular-2e"/>
       <use x="74.59999084472656" xlink:href="#SourceSansPro-Regular-36"/>
      </g>
     </g>
    </g>
    <g id="xtick_2">
     <g id="line2d_3">
      <g>
       <use style="stroke:#000000;stroke-width:0.5;" x="173.430375" xlink:href="#mc7db9fdffb" y="174.6"/>
      </g>
     </g>
     <g id="line2d_4">
      <g>
       <use style="stroke:#000000;stroke-width:0.5;" x="173.430375" xlink:href="#m5a7d422ac3" y="7.2"/>
      </g>
     </g>
     <g id="text_2">
      <!-- 2.7 -->
      <defs>
       <path d="
M17.7031 0
Q18.0938 9 19.2969 16.5
Q20.5 24 22.6406 30.75
Q24.7969 37.5 28.1406 43.7969
Q31.5 50.0938 36.2031 56.7031
L4.40625 56.7031
L4.40625 63.7969
L45.5 63.7969
L45.5 58.7031
Q39.7969 51.5 36.25 44.8906
Q32.7031 38.2969 30.5938 31.4375
Q28.5 24.5938 27.5469 16.9375
Q26.5938 9.29688 26.2031 0
L17.7031 0
z
" id="SourceSansPro-Regular-37"/>
      </defs>
      <g transform="translate(170.638187098 194.52846413)rotate(-45.0)scale(0.12 -0.12)">
       <use xlink:href="#SourceSansPro-Regular-32"/>
       <use x="49.69999694824219" xlink:href="#SourceSansPro-Regular-2e"/>
       <use x="74.59999084472656" xlink:href="#SourceSansPro-Regular-37"/>
      </g>
     </g>
    </g>
    <g id="xtick_3">
     <g id="line2d_5">
      <g>
       <use style="stroke:#000000;stroke-width:0.5;" x="229.230375" xlink:href="#mc7db9fdffb" y="174.6"/>
      </g>
     </g>
     <g id="line2d_6">
      <g>
       <use style="stroke:#000000;stroke-width:0.5;" x="229.230375" xlink:href="#m5a7d422ac3" y="7.2"/>
      </g>
     </g>
     <g id="text_3">
      <!-- 3.1 -->
      <defs>
       <path d="
M6.79688 13.2031
Q9.70312 10.2031 13.5469 7.89062
Q17.4062 5.59375 23.0938 5.59375
Q28.9062 5.59375 32.5938 8.75
Q36.2969 11.9062 36.2969 17.2969
Q36.2969 20.0938 35.25 22.4375
Q34.2031 24.7969 31.7969 26.5
Q29.4062 28.2031 25.5 29.0938
Q21.5938 30 15.9062 30
L15.9062 36.2969
Q21 36.2969 24.4531 37.1875
Q27.9062 38.0938 30.0469 39.6875
Q32.2031 41.2969 33.0938 43.5
Q34 45.7031 34 48.2031
Q34 52.9062 31.0469 55.5938
Q28.0938 58.2969 23 58.2969
Q19 58.2969 15.6406 56.5
Q12.2969 54.7031 9.40625 51.7969
L5 57
Q8.70312 60.5 13.1406 62.75
Q17.5938 65 23.2969 65
Q27.5 65 31 63.8906
Q34.5 62.7969 37.0469 60.75
Q39.5938 58.7031 41 55.7031
Q42.4062 52.7031 42.4062 48.7969
Q42.4062 43 39.2031 39.2969
Q36 35.5938 30.7969 33.5938
L30.7969 33.2031
Q33.7031 32.5 36.2031 31.1406
Q38.7031 29.7969 40.5938 27.75
Q42.5 25.7031 43.5469 23
Q44.5938 20.2969 44.5938 17
Q44.5938 12.7969 42.9375 9.39062
Q41.2969 6 38.4375 3.64062
Q35.5938 1.29688 31.7969 0.046875
Q28 -1.20312 23.5938 -1.20312
Q19.7969 -1.20312 16.6406 -0.453125
Q13.5 0.296875 10.8906 1.54688
Q8.29688 2.79688 6.25 4.39062
Q4.20312 6 2.59375 7.79688
z
" id="SourceSansPro-Regular-33"/>
       <path d="
M7.90625 6.79688
L22.5 6.79688
L22.5 53.7969
L10.9062 53.7969
L10.9062 59.0938
Q15.2969 59.9062 18.5469 61.0469
Q21.7969 62.2031 24.4062 63.7969
L30.7031 63.7969
L30.7031 6.79688
L43.9062 6.79688
L43.9062 0
L7.90625 0
z
" id="SourceSansPro-Regular-31"/>
      </defs>
      <g transform="translate(226.463377777 194.478082772)rotate(-45.0)scale(0.12 -0.12)">
       <use xlink:href="#SourceSansPro-Regular-33"/>
       <use x="49.69999694824219" xlink:href="#SourceSansPro-Regular-2e"/>
       <use x="74.59999084472656" xlink:href="#SourceSansPro-Regular-31"/>
      </g>
     </g>
    </g>
    <g id="xtick_4">
     <g id="line2d_7">
      <g>
       <use style="stroke:#000000;stroke-width:0.5;" x="285.030375" xlink:href="#mc7db9fdffb" y="174.6"/>
      </g>
     </g>
     <g id="line2d_8">
      <g>
       <use style="stroke:#000000;stroke-width:0.5;" x="285.030375" xlink:href="#m5a7d422ac3" y="7.2"/>
      </g>
     </g>
     <g id="text_4">
      <!-- 3.2 -->
      <g transform="translate(282.20835603 194.588126264)rotate(-45.0)scale(0.12 -0.12)">
       <use xlink:href="#SourceSansPro-Regular-33"/>
       <use x="49.69999694824219" xlink:href="#SourceSansPro-Regular-2e"/>
       <use x="74.59999084472656" xlink:href="#SourceSansPro-Regular-32"/>
      </g>
     </g>
    </g>
    <g id="xtick_5">
     <g id="line2d_9">
      <g>
       <use style="stroke:#000000;stroke-width:0.5;" x="340.830375" xlink:href="#mc7db9fdffb" y="174.6"/>
      </g>
     </g>
     <g id="line2d_10">
      <g>
       <use style="stroke:#000000;stroke-width:0.5;" x="340.830375" xlink:href="#m5a7d422ac3" y="7.2"/>
      </g>
     </g>
     <g id="text_5">
      <!-- 3.3 -->
      <g transform="translate(338.034209622 194.536419081)rotate(-45.0)scale(0.12 -0.12)">
       <use xlink:href="#SourceSansPro-Regular-33"/>
       <use x="49.69999694824219" xlink:href="#SourceSansPro-Regular-2e"/>
       <use x="74.59999084472656" xlink:href="#SourceSansPro-Regular-33"/>
      </g>
     </g>
    </g>
    <g id="xtick_6">
     <g id="line2d_11">
      <g>
       <use style="stroke:#000000;stroke-width:0.5;" x="396.630375" xlink:href="#mc7db9fdffb" y="174.6"/>
      </g>
     </g>
     <g id="line2d_12">
      <g>
       <use style="stroke:#000000;stroke-width:0.5;" x="396.630375" xlink:href="#m5a7d422ac3" y="7.2"/>
      </g>
     </g>
     <g id="text_6">
      <!-- 3.4 -->
      <defs>
       <path d="
M30.4062 24.2031
L30.4062 42.7031
Q30.4062 45.2969 30.5469 48.8438
Q30.7031 52.4062 30.9062 55
L30.5 55
Q29.2969 52.7031 28 50.5
Q26.7031 48.2969 25.2969 46
L10.4062 24.2031
z

M46.9062 17.5938
L38.2031 17.5938
L38.2031 0
L30.4062 0
L30.4062 17.5938
L1.70312 17.5938
L1.70312 23
L29 63.7969
L38.2031 63.7969
L38.2031 24.2031
L46.9062 24.2031
z
" id="SourceSansPro-Regular-34"/>
      </defs>
      <g transform="translate(393.736098556 194.732641213)rotate(-45.0)scale(0.12 -0.12)">
       <use xlink:href="#SourceSansPro-Regular-33"/>
       <use x="49.69999694824219" xlink:href="#SourceSansPro-Regular-2e"/>
       <use x="74.59999084472656" xlink:href="#SourceSansPro-Regular-34"/>
      </g>
     </g>
    </g>
    <g id="text_7">
     <!-- Python Version -->
     <defs>
      <path d="
M6.5 49.5938
L18.5 49.5938
L19.5 43.2969
L19.9062 43.2969
Q23.0938 46.2969 26.8906 48.5469
Q30.7031 50.7969 35.7969 50.7969
Q43.9062 50.7969 47.5469 45.5
Q51.2031 40.2031 51.2031 30.7969
L51.2031 0
L36.5 0
L36.5 28.9062
Q36.5 34.2969 35.0469 36.2969
Q33.5938 38.2969 30.4062 38.2969
Q27.5938 38.2969 25.5938 37.0469
Q23.5938 35.7969 21.2031 33.5
L21.2031 0
L6.5 0
z
" id="SourceSansPro-Bold-6e"/>
      <path d="
M-0.703125 65.2031
L14.9062 65.2031
L22.7031 34.7969
Q24.2031 29.4062 25.3438 24.3438
Q26.5 19.2969 28 13.9062
L28.4062 13.9062
Q29.7969 19.2969 31 24.3438
Q32.2031 29.4062 33.5938 34.7969
L41.2969 65.2031
L56.2969 65.2031
L36.7031 0
L19 0
z
" id="SourceSansPro-Bold-56"/>
      <path d="
M6.5 70.0938
L21.2031 70.0938
L21.2031 52.9062
L20.5 44
Q23.2969 46.5 27 48.6406
Q30.7031 50.7969 35.7969 50.7969
Q43.9062 50.7969 47.5469 45.5
Q51.2031 40.2031 51.2031 30.7969
L51.2031 0
L36.5 0
L36.5 28.9062
Q36.5 34.2969 35.0469 36.2969
Q33.5938 38.2969 30.4062 38.2969
Q27.5938 38.2969 25.5938 37.0469
Q23.5938 35.7969 21.2031 33.5
L21.2031 0
L6.5 0
z
" id="SourceSansPro-Bold-68"/>
      <path d="
M8.5 38.0938
L1.70312 38.0938
L1.70312 49
L9.29688 49.5938
L11 62.7969
L23.2031 62.7969
L23.2031 49.5938
L35.0938 49.5938
L35.0938 38.0938
L23.2031 38.0938
L23.2031 18.2031
Q23.2031 14 24.9531 12.1406
Q26.7031 10.2969 29.5938 10.2969
Q30.7969 10.2969 32.0469 10.5938
Q33.2969 10.9062 34.2969 11.2969
L36.5938 0.59375
Q34.5938 0 31.8906 -0.59375
Q29.2031 -1.20312 25.5938 -1.20312
Q21 -1.20312 17.75 0.1875
Q14.5 1.59375 12.4531 4.09375
Q10.4062 6.59375 9.45312 10.1406
Q8.5 13.7031 8.5 18
z
" id="SourceSansPro-Bold-74"/>
      <path d="
M3.59375 24.7969
Q3.59375 31 5.59375 35.8438
Q7.59375 40.7031 10.9375 44
Q14.2969 47.2969 18.6875 49.0469
Q23.0938 50.7969 27.7969 50.7969
Q32.5 50.7969 36.8438 49.0469
Q41.2031 47.2969 44.5469 44
Q47.9062 40.7031 49.9062 35.8438
Q51.9062 31 51.9062 24.7969
Q51.9062 18.5938 49.9062 13.75
Q47.9062 8.90625 44.5469 5.59375
Q41.2031 2.29688 36.8438 0.546875
Q32.5 -1.20312 27.7969 -1.20312
Q23.0938 -1.20312 18.6875 0.546875
Q14.2969 2.29688 10.9375 5.59375
Q7.59375 8.90625 5.59375 13.75
Q3.59375 18.5938 3.59375 24.7969
M18.7031 24.7969
Q18.7031 18.2969 20.9531 14.5
Q23.2031 10.7031 27.7969 10.7031
Q32.2969 10.7031 34.5938 14.5
Q36.9062 18.2969 36.9062 24.7969
Q36.9062 31.2969 34.5938 35.0938
Q32.2969 38.9062 27.7969 38.9062
Q23.2031 38.9062 20.9531 35.0938
Q18.7031 31.2969 18.7031 24.7969" id="SourceSansPro-Bold-6f"/>
      <path d="
M13.7969 56.9062
Q10.0938 56.9062 7.6875 59.0469
Q5.29688 61.2031 5.29688 64.5938
Q5.29688 68 7.6875 70.0938
Q10.0938 72.2031 13.7969 72.2031
Q17.5938 72.2031 19.9375 70.0938
Q22.2969 68 22.2969 64.5938
Q22.2969 61.2031 19.9375 59.0469
Q17.5938 56.9062 13.7969 56.9062
M6.5 49.5938
L21.2031 49.5938
L21.2031 0
L6.5 0
z
" id="SourceSansPro-Bold-69"/>
      <path d="
M3.59375 24.7969
Q3.59375 30.7969 5.59375 35.6406
Q7.59375 40.5 10.8438 43.8438
Q14.0938 47.2031 18.2969 49
Q22.5 50.7969 27 50.7969
Q32.2969 50.7969 36.25 49
Q40.2031 47.2031 42.8438 44
Q45.5 40.7969 46.7969 36.4375
Q48.0938 32.0938 48.0938 27
Q48.0938 25 47.8906 23.3438
Q47.7031 21.7031 47.5 20.7969
L17.7969 20.7969
Q18.7969 15.0938 22.25 12.5469
Q25.7031 10 30.7031 10
Q36 10 41.4062 13.2969
L46.2969 4.40625
Q42.5 1.79688 37.8438 0.296875
Q33.2031 -1.20312 28.7031 -1.20312
Q23.4062 -1.20312 18.7969 0.546875
Q14.2031 2.29688 10.7969 5.64062
Q7.40625 9 5.5 13.7969
Q3.59375 18.5938 3.59375 24.7969
M35.5938 29.9062
Q35.5938 34.2031 33.6875 36.8906
Q31.7969 39.5938 27.2969 39.5938
Q23.7969 39.5938 21.1406 37.25
Q18.5 34.9062 17.7031 29.9062
z
" id="SourceSansPro-Bold-65"/>
      <path d="
M7.70312 65.2031
L31.5 65.2031
Q36.7969 65.2031 41.4375 64.1406
Q46.0938 63.0938 49.5469 60.6406
Q53 58.2031 55 54.1406
Q57 50.0938 57 44.2031
Q57 38.5 54.9531 34.2969
Q52.9062 30.0938 49.4062 27.3906
Q45.9062 24.7031 41.2969 23.3906
Q36.7031 22.0938 31.5 22.0938
L22.4062 22.0938
L22.4062 0
L7.70312 0
z

M30.5938 33.7969
Q42.5938 33.7969 42.5938 44.2031
Q42.5938 49.2969 39.5469 51.3906
Q36.5 53.5 30.5938 53.5
L22.4062 53.5
L22.4062 33.7969
z
" id="SourceSansPro-Bold-50"/>
      <path d="
M6.5 49.5938
L18.5 49.5938
L19.5 40.9062
L19.9062 40.9062
Q22.5938 46 26.3906 48.3906
Q30.2031 50.7969 34 50.7969
Q36.0938 50.7969 37.4375 50.5469
Q38.7969 50.2969 39.9062 49.7969
L37.5 37.0938
Q36.0938 37.5 34.8906 37.7031
Q33.7031 37.9062 32.0938 37.9062
Q29.2969 37.9062 26.25 35.9062
Q23.2031 33.9062 21.2031 28.7969
L21.2031 0
L6.5 0
z
" id="SourceSansPro-Bold-72"/>
      <path d="
M7.59375 -7.20312
Q8.29688 -7.40625 9.1875 -7.59375
Q10.0938 -7.79688 10.9062 -7.79688
Q14.5938 -7.79688 16.5938 -6
Q18.5938 -4.20312 19.5938 -1.29688
L20.2969 1.29688
L1.20312 49.5938
L16 49.5938
L23.0938 28.2969
Q24.2031 24.9062 25.0938 21.4062
Q26 17.9062 27 14.2031
L27.4062 14.2031
Q28.2031 17.7031 29.0469 21.25
Q29.9062 24.7969 30.7969 28.2969
L36.7969 49.5938
L50.9062 49.5938
L33.7031 -0.5
Q31.9062 -5.20312 29.9531 -8.75
Q28 -12.2969 25.4531 -14.6406
Q22.9062 -17 19.6562 -18.2031
Q16.4062 -19.4062 12 -19.4062
Q9.70312 -19.4062 8.09375 -19.1562
Q6.5 -18.9062 5 -18.4062
L7.59375 -7.20312
z
" id="SourceSansPro-Bold-79"/>
      <path id="SourceSansPro-Bold-20"/>
      <path d="
M8.70312 14.9062
Q12.0938 12.2969 15.1875 11
Q18.2969 9.70312 21.5 9.70312
Q24.7969 9.70312 26.2969 10.7969
Q27.7969 11.9062 27.7969 13.9062
Q27.7969 15.0938 26.9375 16.0469
Q26.0938 17 24.6406 17.7969
Q23.2031 18.5938 21.3906 19.25
Q19.5938 19.9062 17.7031 20.7031
Q15.4062 21.5938 13.0938 22.7969
Q10.7969 24 8.89062 25.75
Q7 27.5 5.79688 29.8438
Q4.59375 32.2031 4.59375 35.2969
Q4.59375 38.7031 5.9375 41.5938
Q7.29688 44.5 9.79688 46.5
Q12.2969 48.5 15.7969 49.6406
Q19.2969 50.7969 23.5938 50.7969
Q29.2969 50.7969 33.5938 48.8438
Q37.9062 46.9062 41.0938 44.5
L34.5 35.7031
Q31.7969 37.7031 29.1875 38.7969
Q26.5938 39.9062 24 39.9062
Q18.4062 39.9062 18.4062 36
Q18.4062 34.7969 19.2031 33.9375
Q20 33.0938 21.3438 32.3906
Q22.7031 31.7031 24.4531 31.0469
Q26.2031 30.4062 28.0938 29.7031
Q30.5 28.7969 32.8438 27.6406
Q35.2031 26.5 37.1406 24.7969
Q39.0938 23.0938 40.2969 20.6406
Q41.5 18.2031 41.5 14.7969
Q41.5 11.4062 40.2031 8.5
Q38.9062 5.59375 36.2969 3.4375
Q33.7031 1.29688 29.8906 0.046875
Q26.0938 -1.20312 21.0938 -1.20312
Q16.2031 -1.20312 11.0469 0.6875
Q5.90625 2.59375 2.09375 5.70312
z
" id="SourceSansPro-Bold-73"/>
     </defs>
     <g transform="translate(209.0805 211.869373894)scale(0.144 -0.144)">
      <use xlink:href="#SourceSansPro-Bold-50"/>
      <use x="60.59999084472656" xlink:href="#SourceSansPro-Bold-79"/>
      <use x="112.69998168945312" xlink:href="#SourceSansPro-Bold-74"/>
      <use x="150.99996948242188" xlink:href="#SourceSansPro-Bold-68"/>
      <use x="208.09996032714844" xlink:href="#SourceSansPro-Bold-6f"/>
      <use x="263.5999450683594" xlink:href="#SourceSansPro-Bold-6e"/>
      <use x="320.79994201660156" xlink:href="#SourceSansPro-Bold-20"/>
      <use x="341.5999298095703" xlink:href="#SourceSansPro-Bold-56"/>
      <use x="397.1999206542969" xlink:href="#SourceSansPro-Bold-65"/>
      <use x="448.9999084472656" xlink:href="#SourceSansPro-Bold-72"/>
      <use x="488.7998962402344" xlink:href="#SourceSansPro-Bold-73"/>
      <use x="533.0998840332031" xlink:href="#SourceSansPro-Bold-69"/>
      <use x="560.6998748779297" xlink:href="#SourceSansPro-Bold-6f"/>
      <use x="616.1998596191406" xlink:href="#SourceSansPro-Bold-6e"/>
     </g>
    </g>
   </g>
   <g id="matplotlib.axis_2">
    <g id="ytick_1">
     <g id="line2d_13">
      <defs>
       <path d="
M0 0
L4 0" id="md7965d1ba0" style="stroke:#000000;stroke-width:0.5;"/>
      </defs>
      <g>
       <use style="stroke:#000000;stroke-width:0.5;" x="89.730375" xlink:href="#md7965d1ba0" y="146.7"/>
      </g>
     </g>
     <g id="line2d_14">
      <defs>
       <path d="
M0 0
L-4 0" id="md9a1c1a7cd" style="stroke:#000000;stroke-width:0.5;"/>
      </defs>
      <g>
       <use style="stroke:#000000;stroke-width:0.5;" x="424.530375" xlink:href="#md9a1c1a7cd" y="146.7"/>
      </g>
     </g>
     <g id="text_8">
      <!-- Linux -->
      <defs>
       <path d="
M12.4062 58.5938
Q10 58.5938 8.34375 60.0938
Q6.70312 61.5938 6.70312 63.9062
Q6.70312 66.2969 8.34375 67.75
Q10 69.2031 12.4062 69.2031
Q14.7969 69.2031 16.4375 67.75
Q18.0938 66.2969 18.0938 63.9062
Q18.0938 61.5938 16.4375 60.0938
Q14.7969 58.5938 12.4062 58.5938
M8.20312 48.5938
L16.4062 48.5938
L16.4062 0
L8.20312 0
z
" id="SourceSansPro-Regular-69"/>
       <path d="
M7.5 48.5938
L15.7969 48.5938
L15.7969 18.9062
Q15.7969 12 17.9375 8.95312
Q20.0938 5.90625 24.9062 5.90625
Q28.7031 5.90625 31.5938 7.84375
Q34.5 9.79688 38 14.0938
L38 48.5938
L46.2031 48.5938
L46.2031 0
L39.4062 0
L38.7031 7.59375
L38.4062 7.59375
Q35 3.59375 31.25 1.1875
Q27.5 -1.20312 22.4062 -1.20312
Q14.5938 -1.20312 11.0469 3.59375
Q7.5 8.40625 7.5 17.7969
z
" id="SourceSansPro-Regular-75"/>
       <path d="
M9 65.5938
L17.2969 65.5938
L17.2969 7.09375
L46 7.09375
L46 0
L9 0
z
" id="SourceSansPro-Regular-4c"/>
       <path d="
M17.2969 25.4062
L2.59375 48.5938
L11.5 48.5938
L18 37.9062
Q19.0938 35.9062 20.2969 33.8438
Q21.5 31.7969 22.7969 29.7969
L23.2031 29.7969
Q24.2969 31.7969 25.3906 33.8438
Q26.5 35.9062 27.5938 37.9062
L33.5 48.5938
L42.0938 48.5938
L27.4062 24.5
L43.2031 0
L34.2969 0
L27.2031 11.2969
Q25.9062 13.5 24.5938 15.7031
Q23.2969 17.9062 21.9062 20
L21.5 20
Q20.2031 17.9062 19 15.75
Q17.7969 13.5938 16.5938 11.2969
L10 0
L1.40625 0
z
" id="SourceSansPro-Regular-78"/>
       <path d="
M8.20312 48.5938
L15 48.5938
L15.7031 41.5938
L16 41.5938
Q19.5 45.0938 23.3438 47.4375
Q27.2031 49.7969 32.2969 49.7969
Q40 49.7969 43.5469 45
Q47.0938 40.2031 47.0938 30.7969
L47.0938 0
L38.9062 0
L38.9062 29.7031
Q38.9062 36.5938 36.7031 39.6406
Q34.5 42.7031 29.7031 42.7031
Q25.9062 42.7031 23 40.7969
Q20.0938 38.9062 16.4062 35.2031
L16.4062 0
L8.20312 0
z
" id="SourceSansPro-Regular-6e"/>
      </defs>
      <g transform="translate(59.750375 149.7421875)scale(0.12 -0.12)">
       <use xlink:href="#SourceSansPro-Regular-4c"/>
       <use x="48.59999084472656" xlink:href="#SourceSansPro-Regular-69"/>
       <use x="73.19998168945312" xlink:href="#SourceSansPro-Regular-6e"/>
       <use x="127.89997863769531" xlink:href="#SourceSansPro-Regular-75"/>
       <use x="182.2999725341797" xlink:href="#SourceSansPro-Regular-78"/>
      </g>
     </g>
    </g>
    <g id="ytick_2">
     <g id="line2d_15">
      <g>
       <use style="stroke:#000000;stroke-width:0.5;" x="89.730375" xlink:href="#md7965d1ba0" y="90.9"/>
      </g>
     </g>
     <g id="line2d_16">
      <g>
       <use style="stroke:#000000;stroke-width:0.5;" x="424.530375" xlink:href="#md9a1c1a7cd" y="90.9"/>
      </g>
     </g>
     <g id="text_9">
      <!-- MacOS X -->
      <defs>
       <path d="
M9.20312 14.2969
Q12.7031 10.5938 17.4531 8.34375
Q22.2031 6.09375 27.2969 6.09375
Q33.7969 6.09375 37.3906 9.04688
Q41 12 41 16.7969
Q41 19.2969 40.1406 21.0469
Q39.2969 22.7969 37.8438 24.0469
Q36.4062 25.2969 34.4062 26.2969
Q32.4062 27.2969 30.0938 28.4062
L20.7031 32.5
Q18.4062 33.5 16 34.8906
Q13.5938 36.2969 11.6875 38.2969
Q9.79688 40.2969 8.59375 43.0469
Q7.40625 45.7969 7.40625 49.4062
Q7.40625 53.0938 8.95312 56.2969
Q10.5 59.5 13.25 61.8438
Q16 64.2031 19.75 65.5
Q23.5 66.7969 28 66.7969
Q33.9062 66.7969 38.9062 64.5469
Q43.9062 62.2969 47.4062 58.7031
L42.9062 53.2969
Q39.9062 56.2031 36.25 57.8438
Q32.5938 59.5 28 59.5
Q22.5 59.5 19.1406 56.9531
Q15.7969 54.4062 15.7969 49.9062
Q15.7969 47.5 16.75 45.8438
Q17.7031 44.2031 19.2969 42.9531
Q20.9062 41.7031 22.7969 40.75
Q24.7031 39.7969 26.7031 39
L36 35
Q38.7969 33.7969 41.2969 32.25
Q43.7969 30.7031 45.5938 28.6406
Q47.4062 26.5938 48.4531 23.8438
Q49.5 21.0938 49.5 17.5
Q49.5 13.5938 47.9531 10.1875
Q46.4062 6.79688 43.5 4.25
Q40.5938 1.70312 36.5 0.25
Q32.4062 -1.20312 27.2031 -1.20312
Q20.2969 -1.20312 14.3906 1.39062
Q8.5 4 4.20312 8.5
z
" id="SourceSansPro-Regular-53"/>
       <path d="
M20.5938 33.9062
L2.79688 65.5938
L12 65.5938
L20.9062 48.7969
Q22.2031 46.5 23.3438 44.3438
Q24.5 42.2031 26 39.2969
L26.4062 39.2969
Q27.7969 42.2031 28.8438 44.3438
Q29.9062 46.5 31.0938 48.7969
L39.7969 65.5938
L48.5938 65.5938
L30.7031 33.5
L49.7969 0
L40.5938 0
L31 17.7031
Q29.7031 20.0938 28.3438 22.6406
Q27 25.2031 25.4062 28.2031
L25 28.2031
Q23.5938 25.2031 22.2969 22.6406
Q21 20.0938 19.7969 17.7031
L10.2969 0
L1.5 0
z
" id="SourceSansPro-Regular-58"/>
       <path d="
M5.79688 12.5938
Q5.79688 20.5938 12.9375 24.8438
Q20.0938 29.0938 35.7031 30.7969
Q35.7031 33.0938 35.25 35.2969
Q34.7969 37.5 33.6406 39.2031
Q32.5 40.9062 30.5938 41.9531
Q28.7031 43 25.7031 43
Q21.4062 43 17.75 41.3906
Q14.0938 39.7969 11.2031 37.7969
L7.90625 43.5
Q11.2969 45.7031 16.1875 47.75
Q21.0938 49.7969 27 49.7969
Q35.9062 49.7969 39.9062 44.3438
Q43.9062 38.9062 43.9062 29.7969
L43.9062 0
L37.0938 0
L36.4062 5.79688
L36.2031 5.79688
Q32.7031 2.90625 28.6406 0.84375
Q24.5938 -1.20312 20.0938 -1.20312
Q13.9062 -1.20312 9.84375 2.39062
Q5.79688 6 5.79688 12.5938
M13.9062 13.2031
Q13.9062 9 16.3438 7.20312
Q18.7969 5.40625 22.4062 5.40625
Q25.9062 5.40625 29.0469 7.04688
Q32.2031 8.70312 35.7031 11.9062
L35.7031 25.4062
Q29.5938 24.5938 25.3906 23.5
Q21.2031 22.4062 18.6406 20.9062
Q16.0938 19.4062 15 17.4531
Q13.9062 15.5 13.9062 13.2031" id="SourceSansPro-Regular-61"/>
       <path d="
M9 65.5938
L18.7969 65.5938
L31.5 30.4062
L36.2969 17
L36.7031 17
L41.2969 30.4062
L53.9062 65.5938
L63.7031 65.5938
L63.7031 0
L55.7969 0
L55.7969 36.0938
Q55.7969 40.5 56.1406 45.7969
Q56.5 51.0938 56.9062 55.5
L56.5 55.5
L51.2031 40.9062
L38.5938 6.59375
L33.9062 6.59375
L21.2031 40.9062
L16 55.5
L15.5938 55.5
Q15.9062 51.0938 16.2969 45.7969
Q16.7031 40.5 16.7031 36.0938
L16.7031 0
L9 0
z
" id="SourceSansPro-Regular-4d"/>
       <path d="
M4.59375 24.2031
Q4.59375 30.2969 6.5 35.0469
Q8.40625 39.7969 11.5938 43.0938
Q14.7969 46.4062 19.0469 48.0938
Q23.2969 49.7969 28 49.7969
Q32.7969 49.7969 36.25 48.0469
Q39.7031 46.2969 42.2031 44
L38.0938 38.7031
Q35.9062 40.5938 33.5469 41.7969
Q31.2031 43 28.2969 43
Q25 43 22.2031 41.6406
Q19.4062 40.2969 17.4062 37.7969
Q15.4062 35.2969 14.25 31.8438
Q13.0938 28.4062 13.0938 24.2031
Q13.0938 20 14.1875 16.5938
Q15.2969 13.2031 17.25 10.75
Q19.2031 8.29688 22 6.9375
Q24.7969 5.59375 28.0938 5.59375
Q31.5938 5.59375 34.4375 7.04688
Q37.2969 8.5 39.5 10.5
L43.2031 5.09375
Q39.9062 2.20312 35.8438 0.5
Q31.7969 -1.20312 27.4062 -1.20312
Q22.5938 -1.20312 18.3906 0.5
Q14.2031 2.20312 11.1406 5.45312
Q8.09375 8.70312 6.34375 13.4531
Q4.59375 18.2031 4.59375 24.2031" id="SourceSansPro-Regular-63"/>
       <path id="SourceSansPro-Regular-20"/>
       <path d="
M33.2031 -1.20312
Q27 -1.20312 21.8438 1.1875
Q16.7031 3.59375 13 8.04688
Q9.29688 12.5 7.25 18.8438
Q5.20312 25.2031 5.20312 33.0938
Q5.20312 41 7.25 47.25
Q9.29688 53.5 13 57.8438
Q16.7031 62.2031 21.8438 64.5
Q27 66.7969 33.2031 66.7969
Q39.4062 66.7969 44.5469 64.4375
Q49.7031 62.0938 53.4531 57.75
Q57.2031 53.4062 59.25 47.1562
Q61.2969 40.9062 61.2969 33.0938
Q61.2969 25.2031 59.25 18.8438
Q57.2031 12.5 53.4531 8.04688
Q49.7031 3.59375 44.5469 1.1875
Q39.4062 -1.20312 33.2031 -1.20312
M33.2031 6.09375
Q37.5938 6.09375 41.1406 8
Q44.7031 9.90625 47.25 13.4531
Q49.7969 17 51.1875 21.9531
Q52.5938 26.9062 52.5938 33.0938
Q52.5938 39.2031 51.1875 44.0938
Q49.7969 49 47.25 52.3906
Q44.7031 55.7969 41.1406 57.6406
Q37.5938 59.5 33.2031 59.5
Q28.7969 59.5 25.25 57.6406
Q21.7031 55.7969 19.1406 52.3906
Q16.5938 49 15.1875 44.0938
Q13.7969 39.2031 13.7969 33.0938
Q13.7969 26.9062 15.1875 21.9531
Q16.5938 17 19.1406 13.4531
Q21.7031 9.90625 25.25 8
Q28.7969 6.09375 33.2031 6.09375" id="SourceSansPro-Regular-4f"/>
      </defs>
      <g transform="translate(42.612875 93.9421875)scale(0.12 -0.12)">
       <use xlink:href="#SourceSansPro-Regular-4d"/>
       <use x="72.69998168945312" xlink:href="#SourceSansPro-Regular-61"/>
       <use x="123.89997863769531" xlink:href="#SourceSansPro-Regular-63"/>
       <use x="169.49996948242188" xlink:href="#SourceSansPro-Regular-4f"/>
       <use x="235.89996337890625" xlink:href="#SourceSansPro-Regular-53"/>
       <use x="289.2999572753906" xlink:href="#SourceSansPro-Regular-20"/>
       <use x="309.4999542236328" xlink:href="#SourceSansPro-Regular-58"/>
      </g>
     </g>
    </g>
    <g id="ytick_3">
     <g id="line2d_17">
      <g>
       <use style="stroke:#000000;stroke-width:0.5;" x="89.730375" xlink:href="#md7965d1ba0" y="35.1"/>
      </g>
     </g>
     <g id="line2d_18">
      <g>
       <use style="stroke:#000000;stroke-width:0.5;" x="424.530375" xlink:href="#md9a1c1a7cd" y="35.1"/>
      </g>
     </g>
     <g id="text_10">
      <!-- Windows -->
      <defs>
       <path d="
M2.29688 65.5938
L10.9062 65.5938
L17.7969 29.9062
Q18.7031 24.5 19.7031 19.2969
Q20.7031 14.0938 21.5938 8.70312
L22 8.70312
Q23.0938 14.0938 24.2969 19.3438
Q25.5 24.5938 26.5938 29.9062
L35.7031 65.5938
L43.2969 65.5938
L52.4062 29.9062
Q53.5938 24.7031 54.7969 19.3906
Q56 14.0938 57.2031 8.70312
L57.5938 8.70312
Q58.5 14.0938 59.3906 19.3438
Q60.2969 24.5938 61.2969 29.9062
L68.2031 65.5938
L76.2031 65.5938
L62.5938 0
L52.5938 0
L42.7031 39.5
Q41.7969 43.2969 41.0469 46.9375
Q40.2969 50.5938 39.5 54.4062
L39.0938 54.4062
Q38.2969 50.5938 37.4375 46.9375
Q36.5938 43.2969 35.7969 39.5
L26.0938 0
L16.2031 0
z
" id="SourceSansPro-Regular-57"/>
       <path d="
M2.40625 48.5938
L10.7969 48.5938
L18 20.5
Q18.7969 17 19.5 13.7031
Q20.2031 10.4062 20.9062 7
L21.2969 7
Q22.0938 10.4062 22.8906 13.75
Q23.7031 17.0938 24.5938 20.5
L32.0938 48.5938
L40.0938 48.5938
L47.7031 20.5
Q48.5938 17 49.4375 13.7031
Q50.2969 10.4062 51.0938 7
L51.5 7
Q52.2969 10.4062 53 13.7031
Q53.7031 17 54.5 20.5
L61.5938 48.5938
L69.4062 48.5938
L56.4062 0
L46.4062 0
L39.4062 26.0938
Q38.5 29.5938 37.75 33
Q37 36.4062 36.0938 40.0938
L35.7031 40.0938
Q34.9062 36.4062 34.0938 32.9531
Q33.2969 29.5 32.2969 26
L25.5 0
L15.9062 0
z
" id="SourceSansPro-Regular-77"/>
       <path d="
M4.70312 24.2031
Q4.70312 30.0938 6.45312 34.8438
Q8.20312 39.5938 11.0938 42.8906
Q14 46.2031 17.7969 48
Q21.5938 49.7969 25.7969 49.7969
Q30 49.7969 33.0938 48.2969
Q36.2031 46.7969 39.4062 44.2031
L39 52.5
L39 71.2031
L47.2969 71.2031
L47.2969 0
L40.5 0
L39.7969 5.70312
L39.5 5.70312
Q36.5938 2.90625 32.8438 0.84375
Q29.0938 -1.20312 24.7969 -1.20312
Q15.5938 -1.20312 10.1406 5.39062
Q4.70312 12 4.70312 24.2031
M13.2031 24.2969
Q13.2031 15.5 16.7031 10.5938
Q20.2031 5.70312 26.5938 5.70312
Q30 5.70312 33 7.34375
Q36 9 39 12.4062
L39 37.7969
Q35.9062 40.5938 33.0469 41.75
Q30.2031 42.9062 27.2031 42.9062
Q24.2969 42.9062 21.75 41.5469
Q19.2031 40.2031 17.2969 37.75
Q15.4062 35.2969 14.2969 31.8906
Q13.2031 28.5 13.2031 24.2969" id="SourceSansPro-Regular-64"/>
       <path d="
M4.59375 24.2031
Q4.59375 30.2969 6.4375 35.0469
Q8.29688 39.7969 11.3906 43.0938
Q14.5 46.4062 18.5469 48.0938
Q22.5938 49.7969 27.0938 49.7969
Q31.5938 49.7969 35.6406 48.0938
Q39.7031 46.4062 42.7969 43.0938
Q45.9062 39.7969 47.75 35.0469
Q49.5938 30.2969 49.5938 24.2031
Q49.5938 18.2031 47.75 13.4531
Q45.9062 8.70312 42.7969 5.45312
Q39.7031 2.20312 35.6406 0.5
Q31.5938 -1.20312 27.0938 -1.20312
Q22.5938 -1.20312 18.5469 0.5
Q14.5 2.20312 11.3906 5.45312
Q8.29688 8.70312 6.4375 13.4531
Q4.59375 18.2031 4.59375 24.2031
M13.0938 24.2031
Q13.0938 20 14.0938 16.5938
Q15.0938 13.2031 16.9375 10.75
Q18.7969 8.29688 21.3906 6.9375
Q24 5.59375 27.0938 5.59375
Q30.2031 5.59375 32.7969 6.9375
Q35.4062 8.29688 37.25 10.75
Q39.0938 13.2031 40.0938 16.5938
Q41.0938 20 41.0938 24.2031
Q41.0938 28.4062 40.0938 31.8438
Q39.0938 35.2969 37.25 37.7969
Q35.4062 40.2969 32.7969 41.6406
Q30.2031 43 27.0938 43
Q24 43 21.3906 41.6406
Q18.7969 40.2969 16.9375 37.7969
Q15.0938 35.2969 14.0938 31.8438
Q13.0938 28.4062 13.0938 24.2031" id="SourceSansPro-Regular-6f"/>
       <path d="
M6.90625 11
Q10.0938 8.40625 13.4375 6.79688
Q16.7969 5.20312 21.2031 5.20312
Q26 5.20312 28.3906 7.39062
Q30.7969 9.59375 30.7969 12.7969
Q30.7969 14.7031 29.7969 16.0938
Q28.7969 17.5 27.25 18.5469
Q25.7031 19.5938 23.7031 20.3906
Q21.7031 21.2031 19.7031 22
Q17.0938 22.9062 14.5 24.0469
Q11.9062 25.2031 9.84375 26.8438
Q7.79688 28.5 6.5 30.7031
Q5.20312 32.9062 5.20312 36
Q5.20312 38.9062 6.34375 41.4531
Q7.5 44 9.64062 45.8438
Q11.7969 47.7031 14.8906 48.75
Q18 49.7969 21.9062 49.7969
Q26.5 49.7969 30.3438 48.1875
Q34.2031 46.5938 37 44.2969
L33.0938 39.0938
Q30.5938 41 27.8906 42.2031
Q25.2031 43.4062 22 43.4062
Q17.4062 43.4062 15.25 41.2969
Q13.0938 39.2031 13.0938 36.4062
Q13.0938 34.7031 14 33.4531
Q14.9062 32.2031 16.4062 31.25
Q17.9062 30.2969 19.8438 29.5469
Q21.7969 28.7969 23.9062 28
Q26.5 27 29.1406 25.8906
Q31.7969 24.7969 33.8906 23.1406
Q36 21.5 37.3438 19.0938
Q38.7031 16.7031 38.7031 13.2969
Q38.7031 10.2969 37.5469 7.6875
Q36.4062 5.09375 34.1562 3.09375
Q31.9062 1.09375 28.5469 -0.046875
Q25.2031 -1.20312 20.9062 -1.20312
Q15.7031 -1.20312 11 0.6875
Q6.29688 2.59375 2.79688 5.5
z
" id="SourceSansPro-Regular-73"/>
      </defs>
      <g transform="translate(40.63475 38.1421875)scale(0.12 -0.12)">
       <use xlink:href="#SourceSansPro-Regular-57"/>
       <use x="78.59999084472656" xlink:href="#SourceSansPro-Regular-69"/>
       <use x="103.19998168945312" xlink:href="#SourceSansPro-Regular-6e"/>
       <use x="157.8999786376953" xlink:href="#SourceSansPro-Regular-64"/>
       <use x="213.39996337890625" xlink:href="#SourceSansPro-Regular-6f"/>
       <use x="267.59996032714844" xlink:href="#SourceSansPro-Regular-77"/>
       <use x="339.3999481201172" xlink:href="#SourceSansPro-Regular-73"/>
      </g>
     </g>
    </g>
    <g id="text_11">
     <!-- Operating System -->
     <defs>
      <path d="
M34.2031 -1.20312
Q27.5938 -1.20312 22.1406 1.14062
Q16.7031 3.5 12.7969 7.89062
Q8.90625 12.2969 6.75 18.5938
Q4.59375 24.9062 4.59375 32.9062
Q4.59375 40.9062 6.75 47.1562
Q8.90625 53.4062 12.7969 57.6562
Q16.7031 61.9062 22.1406 64.1562
Q27.5938 66.4062 34.2031 66.4062
Q40.7969 66.4062 46.25 64.1562
Q51.7031 61.9062 55.5938 57.5938
Q59.5 53.2969 61.6406 47.0469
Q63.7969 40.7969 63.7969 32.9062
Q63.7969 24.9062 61.6406 18.5938
Q59.5 12.2969 55.5938 7.89062
Q51.7031 3.5 46.25 1.14062
Q40.7969 -1.20312 34.2031 -1.20312
M34.2031 11.5
Q40.9062 11.5 44.7969 17.25
Q48.7031 23 48.7031 32.9062
Q48.7031 42.7031 44.7969 48.2031
Q40.9062 53.7031 34.2031 53.7031
Q27.5 53.7031 23.5938 48.2031
Q19.7031 42.7031 19.7031 32.9062
Q19.7031 23 23.5938 17.25
Q27.5 11.5 34.2031 11.5" id="SourceSansPro-Bold-4f"/>
      <path d="
M21.2031 -3.90625
L21.2031 -18.4062
L6.5 -18.4062
L6.5 49.5938
L18.5 49.5938
L19.5 44.7031
L19.9062 44.7031
Q22.7969 47.2969 26.4375 49.0469
Q30.0938 50.7969 34 50.7969
Q38.5 50.7969 42.0938 49
Q45.7031 47.2031 48.2031 43.8906
Q50.7031 40.5938 52.0469 35.9375
Q53.4062 31.2969 53.4062 25.5938
Q53.4062 19.2031 51.6562 14.25
Q49.9062 9.29688 46.9531 5.84375
Q44 2.40625 40.25 0.59375
Q36.5 -1.20312 32.5 -1.20312
Q29.2969 -1.20312 26.2969 0.140625
Q23.2969 1.5 20.7031 4
z

M21.2031 14
Q23.2031 12.2031 25.2031 11.5
Q27.2031 10.7969 29.0938 10.7969
Q32.9062 10.7969 35.5938 14.25
Q38.2969 17.7031 38.2969 25.4062
Q38.2969 38.7969 29.7031 38.7969
Q25.4062 38.7969 21.2031 34.2969
z
" id="SourceSansPro-Bold-70"/>
      <path d="
M6.5 49.5938
L18.5 49.5938
L19.5 43.2031
L19.9062 43.2031
Q23 46.2969 26.5 48.5469
Q30 50.7969 34.9062 50.7969
Q40.2031 50.7969 43.4531 48.6406
Q46.7031 46.5 48.5938 42.5
Q51.9062 45.9062 55.5469 48.3438
Q59.2031 50.7969 64.2031 50.7969
Q72.2031 50.7969 75.9531 45.4375
Q79.7031 40.0938 79.7031 30.7969
L79.7031 0
L65 0
L65 28.9062
Q65 34.2969 63.5469 36.2969
Q62.0938 38.2969 58.9062 38.2969
Q55.2031 38.2969 50.4062 33.5
L50.4062 0
L35.7031 0
L35.7031 28.9062
Q35.7031 34.2969 34.25 36.2969
Q32.7969 38.2969 29.5938 38.2969
Q25.7969 38.2969 21.2031 33.5
L21.2031 0
L6.5 0
z
" id="SourceSansPro-Bold-6d"/>
      <path d="
M11.9062 18.2969
Q15.4062 15.2969 19.6562 13.3906
Q23.9062 11.5 28 11.5
Q32.5938 11.5 34.8438 13.2031
Q37.0938 14.9062 37.0938 17.7969
Q37.0938 19.2969 36.4375 20.3906
Q35.7969 21.5 34.5469 22.3438
Q33.2969 23.2031 31.5469 23.9531
Q29.7969 24.7031 27.7031 25.5938
L19.2031 29.2031
Q16.7031 30.2031 14.3438 31.7969
Q12 33.4062 10.1406 35.5469
Q8.29688 37.7031 7.1875 40.5469
Q6.09375 43.4062 6.09375 47
Q6.09375 51 7.79688 54.5469
Q9.5 58.0938 12.5938 60.75
Q15.7031 63.4062 19.9531 64.9062
Q24.2031 66.4062 29.2969 66.4062
Q35 66.4062 40.5469 64.2031
Q46.0938 62 50.2969 57.7969
L42.7969 48.5
Q39.5938 51 36.3906 52.3438
Q33.2031 53.7031 29.2969 53.7031
Q25.5 53.7031 23.25 52.1406
Q21 50.5938 21 47.7969
Q21 46.2969 21.75 45.25
Q22.5 44.2031 23.8438 43.3438
Q25.2031 42.5 27 41.75
Q28.7969 41 30.9062 40.0938
L39.2969 36.7031
Q45.2969 34.2969 48.75 30.0938
Q52.2031 25.9062 52.2031 19
Q52.2031 14.9062 50.5469 11.25
Q48.9062 7.59375 45.75 4.84375
Q42.5938 2.09375 38 0.4375
Q33.4062 -1.20312 27.5938 -1.20312
Q21.2031 -1.20312 14.8438 1.14062
Q8.5 3.5 3.5 8.20312
z
" id="SourceSansPro-Bold-53"/>
      <path d="
M15.5 -6.20312
Q15.5 -9 18.5 -10.4531
Q21.5 -11.9062 26.5 -11.9062
Q31.5 -11.9062 34.7031 -10.1562
Q37.9062 -8.40625 37.9062 -5.79688
Q37.9062 -3.5 35.9531 -2.70312
Q34 -1.90625 30.2969 -1.90625
L25.2031 -1.90625
Q22.5938 -1.90625 21 -1.75
Q19.4062 -1.59375 18.2031 -1.29688
Q15.5 -3.70312 15.5 -6.20312
M3.40625 -8.5
Q3.40625 -2.5 10.5 1.5
L10.5 1.90625
Q8.5 3.20312 7.20312 5.20312
Q5.90625 7.20312 5.90625 10.2969
Q5.90625 13 7.5 15.4531
Q9.09375 17.9062 11.5 19.5938
L11.5 20
Q8.90625 21.7969 6.84375 25.1406
Q4.79688 28.5 4.79688 32.9062
Q4.79688 37.4062 6.5 40.75
Q8.20312 44.0938 11.0469 46.3438
Q13.9062 48.5938 17.5938 49.6875
Q21.2969 50.7969 25.2969 50.7969
Q29.7031 50.7969 33 49.5938
L51.0938 49.5938
L51.0938 38.9062
L43.2031 38.9062
Q43.9062 37.7969 44.3438 36.0938
Q44.7969 34.4062 44.7969 32.4062
Q44.7969 28.0938 43.2969 24.9375
Q41.7969 21.7969 39.1406 19.75
Q36.5 17.7031 32.9531 16.7031
Q29.4062 15.7031 25.2969 15.7031
Q22.4062 15.7031 19.2969 16.7031
Q18.2969 15.9062 17.8906 15.0938
Q17.5 14.2969 17.5 13
Q17.5 11.0938 19.1406 10.1875
Q20.7969 9.29688 25 9.29688
L33 9.29688
Q42.2031 9.29688 47.0469 6.34375
Q51.9062 3.40625 51.9062 -3.29688
Q51.9062 -7.20312 49.9531 -10.4531
Q48 -13.7031 44.3906 -16.0469
Q40.7969 -18.4062 35.6875 -19.75
Q30.5938 -21.0938 24.2031 -21.0938
Q19.7969 -21.0938 16.0469 -20.3438
Q12.2969 -19.5938 9.4375 -18.0938
Q6.59375 -16.5938 5 -14.1875
Q3.40625 -11.7969 3.40625 -8.5
M25.2969 24.5938
Q28.2031 24.5938 30.1406 26.6406
Q32.0938 28.7031 32.0938 32.9062
Q32.0938 36.7969 30.1406 38.8438
Q28.2031 40.9062 25.2969 40.9062
Q22.4062 40.9062 20.4531 38.9062
Q18.5 36.9062 18.5 32.9062
Q18.5 28.7031 20.4531 26.6406
Q22.4062 24.5938 25.2969 24.5938" id="SourceSansPro-Bold-67"/>
      <path d="
M4.70312 13.7969
Q4.70312 21.5938 11.2969 26
Q17.9062 30.4062 32.5938 31.9062
Q32.4062 35.2031 30.5938 37.1406
Q28.7969 39.0938 24.7969 39.0938
Q21.5938 39.0938 18.3906 37.8906
Q15.2031 36.7031 11.5938 34.5938
L6.40625 44.2969
Q11.2031 47.2031 16.4531 49
Q21.7031 50.7969 27.5938 50.7969
Q37.2031 50.7969 42.25 45.3438
Q47.2969 39.9062 47.2969 28.4062
L47.2969 0
L35.2969 0
L34.2031 5.09375
L33.9062 5.09375
Q30.7031 2.29688 27.1406 0.546875
Q23.5938 -1.20312 19.4062 -1.20312
Q16 -1.20312 13.2969 -0.046875
Q10.5938 1.09375 8.6875 3.14062
Q6.79688 5.20312 5.75 7.89062
Q4.70312 10.5938 4.70312 13.7969
M18.7031 14.9062
Q18.7031 12.5 20.25 11.3438
Q21.7969 10.2031 24.4062 10.2031
Q27 10.2031 28.7969 11.2969
Q30.5938 12.4062 32.5938 14.4062
L32.5938 23.0938
Q24.7031 22 21.7031 19.8906
Q18.7031 17.7969 18.7031 14.9062" id="SourceSansPro-Bold-61"/>
     </defs>
     <g transform="translate(17.59725 147.76425)rotate(-90.0)scale(0.144 -0.144)">
      <use xlink:href="#SourceSansPro-Bold-4f"/>
      <use x="68.39999389648438" xlink:href="#SourceSansPro-Bold-70"/>
      <use x="125.69998168945312" xlink:href="#SourceSansPro-Bold-65"/>
      <use x="177.49996948242188" xlink:href="#SourceSansPro-Bold-72"/>
      <use x="217.29995727539062" xlink:href="#SourceSansPro-Bold-61"/>
      <use x="270.699951171875" xlink:href="#SourceSansPro-Bold-74"/>
      <use x="308.99993896484375" xlink:href="#SourceSansPro-Bold-69"/>
      <use x="336.5999298095703" xlink:href="#SourceSansPro-Bold-6e"/>
      <use x="393.7999267578125" xlink:href="#SourceSansPro-Bold-67"/>
      <use x="447.1999206542969" xlink:href="#SourceSansPro-Bold-20"/>
      <use x="467.9999084472656" xlink:href="#SourceSansPro-Bold-53"/>
      <use x="523.5998992919922" xlink:href="#SourceSansPro-Bold-79"/>
      <use x="575.6998901367188" xlink:href="#SourceSansPro-Bold-73"/>
      <use x="619.9998779296875" xlink:href="#SourceSansPro-Bold-74"/>
      <use x="658.2998657226562" xlink:href="#SourceSansPro-Bold-65"/>
      <use x="710.099853515625" xlink:href="#SourceSansPro-Bold-6d"/>
     </g>
    </g>
   </g>
   <g id="text_12">
    <!--  3% -->
    <defs>
     <path d="
M18.4062 25.7969
Q11.5938 25.7969 7.54688 31.1875
Q3.5 36.5938 3.5 46.5938
Q3.5 56.5 7.54688 61.8438
Q11.5938 67.2031 18.4062 67.2031
Q25.0938 67.2031 29.1875 61.8438
Q33.2969 56.5 33.2969 46.5938
Q33.2969 36.5938 29.1875 31.1875
Q25.0938 25.7969 18.4062 25.7969
M18.4062 30.9062
Q22.2031 30.9062 24.5938 34.8438
Q27 38.7969 27 46.5938
Q27 54.4062 24.5938 58.25
Q22.2031 62.0938 18.4062 62.0938
Q14.5 62.0938 12.0938 58.25
Q9.70312 54.4062 9.70312 46.5938
Q9.70312 38.7969 12.0938 34.8438
Q14.5 30.9062 18.4062 30.9062
M20.1719 -1.20312
L56.375 66.7969
L61.9688 66.7969
L25.7812 -1.20312
z

M64.1562 -1.20312
Q57.3438 -1.20312 53.2969 4.1875
Q49.25 9.59375 49.25 19.5938
Q49.25 29.5 53.2969 34.8438
Q57.3438 40.2031 64.1562 40.2031
Q70.8438 40.2031 74.9375 34.8438
Q79.0469 29.5 79.0469 19.5938
Q79.0469 9.59375 74.9375 4.1875
Q70.8438 -1.20312 64.1562 -1.20312
M64.1562 3.90625
Q67.9531 3.90625 70.3438 7.84375
Q72.75 11.7969 72.75 19.5938
Q72.75 27.4062 70.3438 31.25
Q67.9531 35.0938 64.1562 35.0938
Q60.25 35.0938 57.8438 31.25
Q55.4531 27.4062 55.4531 19.5938
Q55.4531 11.7969 57.8438 7.84375
Q60.25 3.90625 64.1562 3.90625" id="SourceSansPro-Regular-25"/>
    </defs>
    <g transform="translate(110.185697812 149.234142188)scale(0.09996 -0.09996)">
     <use xlink:href="#SourceSansPro-Regular-20"/>
     <use x="20.199996948242188" xlink:href="#SourceSansPro-Regular-33"/>
     <use x="69.89999389648438" xlink:href="#SourceSansPro-Regular-25"/>
    </g>
   </g>
   <g id="text_13">
    <!-- &lt;1% -->
    <defs>
     <path d="
M3.40625 36.5
L46.2969 53.2969
L46.2969 46.2031
L25.2031 38.4062
L11.7969 33.4062
L11.7969 33
L25.2031 28
L46.2969 20.2031
L46.2969 13.0938
L3.40625 29.9062
z
" id="SourceSansPro-Regular-3c"/>
    </defs>
    <g transform="translate(108.881532187 93.4341421875)scale(0.09996 -0.09996)">
     <use xlink:href="#SourceSansPro-Regular-3c"/>
     <use x="49.69999694824219" xlink:href="#SourceSansPro-Regular-31"/>
     <use x="99.39999389648438" xlink:href="#SourceSansPro-Regular-25"/>
    </g>
   </g>
   <g id="text_14">
    <!-- 79% -->
    <defs>
     <path d="
M23.5 31
Q26.5938 31 30.1406 32.9531
Q33.7031 34.9062 36.9062 39.5
Q36.0938 48.9062 32.5 53.7031
Q28.9062 58.5 22.7969 58.5
Q20.5 58.5 18.4531 57.5
Q16.4062 56.5 14.9062 54.6406
Q13.4062 52.7969 12.5469 50.1875
Q11.7031 47.5938 11.7031 44.5
Q11.7031 38.2031 14.5938 34.5938
Q17.5 31 23.5 31
M9.70312 10.7031
Q11.7031 8.40625 14.4531 7
Q17.2031 5.59375 20.2031 5.59375
Q23.5938 5.59375 26.5938 7
Q29.5938 8.40625 31.8906 11.6562
Q34.2031 14.9062 35.5938 20.0938
Q37 25.2969 37.0938 33
Q34.0938 29.2031 30.0938 27
Q26.0938 24.7969 22.0938 24.7969
Q13.7969 24.7969 8.89062 29.6875
Q4 34.5938 4 44.5
Q4 49.0938 5.5 52.8438
Q7 56.5938 9.54688 59.2969
Q12.0938 62 15.5469 63.5
Q19 65 22.7969 65
Q27.5 65 31.5469 63.0938
Q35.5938 61.2031 38.5469 57.3438
Q41.5 53.5 43.1406 47.75
Q44.7969 42 44.7969 34.2969
Q44.7969 24.7031 42.7969 17.9531
Q40.7969 11.2031 37.3906 6.95312
Q34 2.70312 29.6406 0.75
Q25.2969 -1.20312 20.5 -1.20312
Q15.4062 -1.20312 11.5469 0.6875
Q7.70312 2.59375 5.09375 5.5
z
" id="SourceSansPro-Regular-39"/>
    </defs>
    <g style="fill:#ffffff;" transform="translate(164.731512187 149.234142188)scale(0.09996 -0.09996)">
     <use xlink:href="#SourceSansPro-Regular-37"/>
     <use x="49.69999694824219" xlink:href="#SourceSansPro-Regular-39"/>
     <use x="99.39999389648438" xlink:href="#SourceSansPro-Regular-25"/>
    </g>
   </g>
   <g id="text_15">
    <!-- 88% -->
    <defs>
     <path d="
M11.5 17.0938
Q11.5 14.4062 12.5469 12.2031
Q13.5938 10 15.4375 8.34375
Q17.2969 6.70312 19.7969 5.79688
Q22.2969 4.90625 25.2031 4.90625
Q30.7969 4.90625 34.25 8
Q37.7031 11.0938 37.7031 16.0938
Q37.7031 19.2031 36.2969 21.3906
Q34.9062 23.5938 32.5 25.25
Q30.0938 26.9062 26.9375 28.25
Q23.7969 29.5938 20.4062 31
Q16.5938 28.4062 14.0469 24.9531
Q11.5 21.5 11.5 17.0938
M29.5 34.7969
Q32.7031 37.7031 34.4531 40.8906
Q36.2031 44.0938 36.2031 47.5938
Q36.2031 52.4062 33.2969 55.6562
Q30.4062 58.9062 25.0938 58.9062
Q20.5938 58.9062 17.6875 56.0938
Q14.7969 53.2969 14.7969 48.5938
Q14.7969 45.7031 16 43.6406
Q17.2031 41.5938 19.25 40
Q21.2969 38.4062 23.9375 37.1562
Q26.5938 35.9062 29.5 34.7969
M4.09375 16.2969
Q4.09375 19.4062 5.14062 22.0469
Q6.20312 24.7031 7.84375 26.8438
Q9.5 29 11.6406 30.6406
Q13.7969 32.2969 16.0938 33.5
L16.0938 33.9062
Q12.5938 36.4062 9.89062 39.9531
Q7.20312 43.5 7.20312 48.5938
Q7.20312 52.2969 8.59375 55.2969
Q10 58.2969 12.3906 60.4375
Q14.7969 62.5938 18.0938 63.7969
Q21.4062 65 25.2969 65
Q29.5 65 32.7969 63.75
Q36.0938 62.5 38.4375 60.25
Q40.7969 58 42.0469 54.8438
Q43.2969 51.7031 43.2969 48
Q43.2969 45.5 42.4375 43.2031
Q41.5938 40.9062 40.3438 38.9062
Q39.0938 36.9062 37.5469 35.2969
Q36 33.7031 34.5 32.5938
L34.5 32.2031
Q36.5938 31 38.5938 29.4531
Q40.5938 27.9062 42.1406 25.9531
Q43.7031 24 44.6406 21.5
Q45.5938 19 45.5938 15.7969
Q45.5938 12.2031 44.0938 9.09375
Q42.5938 6 39.8906 3.70312
Q37.2031 1.40625 33.3906 0.09375
Q29.5938 -1.20312 25 -1.20312
Q20.5 -1.20312 16.6406 0.09375
Q12.7969 1.40625 10.0469 3.75
Q7.29688 6.09375 5.6875 9.29688
Q4.09375 12.5 4.09375 16.2969" id="SourceSansPro-Regular-38"/>
    </defs>
    <g style="fill:#ffffff;" transform="translate(164.715893437 93.4341421875)scale(0.09996 -0.09996)">
     <use xlink:href="#SourceSansPro-Regular-38"/>
     <use x="49.69999694824219" xlink:href="#SourceSansPro-Regular-38"/>
     <use x="99.39999389648438" xlink:href="#SourceSansPro-Regular-25"/>
    </g>
   </g>
   <g id="text_16">
    <!-- 61% -->
    <g style="fill:#ffffff;" transform="translate(164.751035625 37.6341421875)scale(0.09996 -0.09996)">
     <use xlink:href="#SourceSansPro-Regular-36"/>
     <use x="49.69999694824219" xlink:href="#SourceSansPro-Regular-31"/>
     <use x="99.39999389648438" xlink:href="#SourceSansPro-Regular-25"/>
    </g>
   </g>
   <g id="text_17">
    <!--  1% -->
    <g transform="translate(277.585697812 149.234142188)scale(0.09996 -0.09996)">
     <use xlink:href="#SourceSansPro-Regular-20"/>
     <use x="20.199996948242188" xlink:href="#SourceSansPro-Regular-31"/>
     <use x="69.89999389648438" xlink:href="#SourceSansPro-Regular-25"/>
    </g>
   </g>
   <g id="text_18">
    <!--  1% -->
    <g transform="translate(333.385697812 149.234142188)scale(0.09996 -0.09996)">
     <use xlink:href="#SourceSansPro-Regular-20"/>
     <use x="20.199996948242188" xlink:href="#SourceSansPro-Regular-31"/>
     <use x="69.89999389648438" xlink:href="#SourceSansPro-Regular-25"/>
    </g>
   </g>
   <g id="text_19">
    <!--  1% -->
    <g transform="translate(333.385697812 93.4341421875)scale(0.09996 -0.09996)">
     <use xlink:href="#SourceSansPro-Regular-20"/>
     <use x="20.199996948242188" xlink:href="#SourceSansPro-Regular-31"/>
     <use x="69.89999389648438" xlink:href="#SourceSansPro-Regular-25"/>
    </g>
   </g>
   <g id="text_20">
    <!--  3% -->
    <g transform="translate(333.385697812 37.6341421875)scale(0.09996 -0.09996)">
     <use xlink:href="#SourceSansPro-Regular-20"/>
     <use x="20.199996948242188" xlink:href="#SourceSansPro-Regular-33"/>
     <use x="69.89999389648438" xlink:href="#SourceSansPro-Regular-25"/>
    </g>
   </g>
   <g id="text_21">
    <!-- 16% -->
    <g transform="translate(388.106442187 149.234142188)scale(0.09996 -0.09996)">
     <use xlink:href="#SourceSansPro-Regular-31"/>
     <use x="49.69999694824219" xlink:href="#SourceSansPro-Regular-36"/>
     <use x="99.39999389648438" xlink:href="#SourceSansPro-Regular-25"/>
    </g>
   </g>
   <g id="text_22">
    <!-- 11% -->
    <g transform="translate(388.106442187 93.4341421875)scale(0.09996 -0.09996)">
     <use xlink:href="#SourceSansPro-Regular-31"/>
     <use x="49.69999694824219" xlink:href="#SourceSansPro-Regular-31"/>
     <use x="99.39999389648438" xlink:href="#SourceSansPro-Regular-25"/>
    </g>
   </g>
   <g id="text_23">
    <!-- 36% -->
    <g transform="translate(387.840923437 37.6341421875)scale(0.09996 -0.09996)">
     <use xlink:href="#SourceSansPro-Regular-33"/>
     <use x="49.69999694824219" xlink:href="#SourceSansPro-Regular-36"/>
     <use x="99.39999389648438" xlink:href="#SourceSansPro-Regular-25"/>
    </g>
   </g>
  </g>
 </g>
 <defs>
  <clipPath id="p3f3dc29a7b">
   <rect height="167.4" width="334.8" x="89.730375" y="7.2"/>
  </clipPath>
 </defs>
</svg>
