<?xml version="1.0" encoding="utf-8" standalone="no"?>
<!DOCTYPE svg PUBLIC "-//W3C//DTD SVG 1.1//EN"
  "http://www.w3.org/Graphics/SVG/1.1/DTD/svg11.dtd">
<!-- Created with matplotlib (http://matplotlib.org/) -->
<svg height="316pt" version="1.1" viewBox="0 0 614 316" width="614pt" xmlns="http://www.w3.org/2000/svg" xmlns:xlink="http://www.w3.org/1999/xlink">
 <defs>
  <style type="text/css">
*{stroke-linecap:butt;stroke-linejoin:round;}
  </style>
 </defs>
 <g id="figure_1">
  <g id="patch_1">
   <path d="
M0 316.909
L614.867 316.909
L614.867 0
L0 0
L0 316.909" style="fill:none;"/>
  </g>
  <g id="axes_1">
   <g id="patch_2">
    <path d="
M267.432 266.4
L602.232 266.4
L602.232 7.2
L267.432 7.2
L267.432 266.4" style="fill:none;"/>
   </g>
   <g id="patch_3">
    <path clip-path="url(#pe916e73ece)" d="
M267.432 262.08
L272.009 262.08
L272.009 227.52
L267.432 227.52
z
" style="fill:#157f3b;stroke:#005321;stroke-linejoin:miter;"/>
   </g>
   <g id="patch_4">
    <path clip-path="url(#pe916e73ece)" d="
M267.432 218.88
L315.489 218.88
L315.489 184.32
L267.432 184.32
z
" style="fill:#157f3b;stroke:#005321;stroke-linejoin:miter;"/>
   </g>
   <g id="patch_5">
    <path clip-path="url(#pe916e73ece)" d="
M267.432 175.68
L334.56 175.68
L334.56 141.12
L267.432 141.12
z
" style="fill:#157f3b;stroke:#005321;stroke-linejoin:miter;"/>
   </g>
   <g id="patch_6">
    <path clip-path="url(#pe916e73ece)" d="
M267.432 132.48
L383.38 132.48
L383.38 97.92
L267.432 97.92
z
" style="fill:#157f3b;stroke:#005321;stroke-linejoin:miter;"/>
   </g>
   <g id="patch_7">
    <path clip-path="url(#pe916e73ece)" d="
M267.432 89.28
L428.386 89.28
L428.386 54.72
L267.432 54.72
z
" style="fill:#157f3b;stroke:#005321;stroke-linejoin:miter;"/>
   </g>
   <g id="patch_8">
    <path clip-path="url(#pe916e73ece)" d="
M267.432 46.08
L563.405 46.08
L563.405 11.52
L267.432 11.52
z
" style="fill:#157f3b;stroke:#005321;stroke-linejoin:miter;"/>
   </g>
   <g id="patch_9">
    <path d="
M267.432 7.2
L602.232 7.2" style="fill:none;stroke:#000000;stroke-linecap:square;stroke-linejoin:miter;"/>
   </g>
   <g id="patch_10">
    <path d="
M602.232 266.4
L602.232 7.2" style="fill:none;stroke:#000000;stroke-linecap:square;stroke-linejoin:miter;"/>
   </g>
   <g id="patch_11">
    <path d="
M267.432 266.4
L267.432 7.2" style="fill:none;stroke:#000000;stroke-linecap:square;stroke-linejoin:miter;"/>
   </g>
   <g id="patch_12">
    <path d="
M267.432 266.4
L602.232 266.4" style="fill:none;stroke:#000000;stroke-linecap:square;stroke-linejoin:miter;"/>
   </g>
   <g id="matplotlib.axis_1">
    <g id="xtick_1">
     <g id="line2d_1">
      <defs>
       <path d="
M0 0
L0 -4" id="mc7db9fdffb" style="stroke:#000000;stroke-width:0.5;"/>
      </defs>
      <g>
       <use style="stroke:#000000;stroke-width:0.5;" x="267.431875" xlink:href="#mc7db9fdffb" y="266.4"/>
      </g>
     </g>
     <g id="line2d_2">
      <defs>
       <path d="
M0 0
L0 4" id="m5a7d422ac3" style="stroke:#000000;stroke-width:0.5;"/>
      </defs>
      <g>
       <use style="stroke:#000000;stroke-width:0.5;" x="267.431875" xlink:href="#m5a7d422ac3" y="7.2"/>
      </g>
     </g>
     <g id="text_1">
      <!-- 0 -->
      <defs>
       <path d="
M24.9062 -1.20312
Q15.2031 -1.20312 9.79688 7.39062
Q4.40625 16 4.40625 32.0938
Q4.40625 48.2031 9.79688 56.5938
Q15.2031 65 24.9062 65
Q34.5 65 39.8906 56.5938
Q45.2969 48.2031 45.2969 32.0938
Q45.2969 16 39.8906 7.39062
Q34.5 -1.20312 24.9062 -1.20312
M24.9062 5.40625
Q27.7031 5.40625 29.9531 6.95312
Q32.2031 8.5 33.8438 11.75
Q35.5 15 36.3906 20.0469
Q37.2969 25.0938 37.2969 32.0938
Q37.2969 39.0938 36.3906 44.0938
Q35.5 49.0938 33.8438 52.25
Q32.2031 55.4062 29.9531 56.9062
Q27.7031 58.4062 24.9062 58.4062
Q22.0938 58.4062 19.7969 56.9062
Q17.5 55.4062 15.8438 52.25
Q14.2031 49.0938 13.2969 44.0938
Q12.4062 39.0938 12.4062 32.0938
Q12.4062 18.0938 15.8438 11.75
Q19.2969 5.40625 24.9062 5.40625" id="SourceSansPro-Regular-30"/>
      </defs>
      <g transform="translate(264.9784375 278.944375)scale(0.12 -0.12)">
       <use xlink:href="#SourceSansPro-Regular-30"/>
      </g>
     </g>
    </g>
    <g id="xtick_2">
     <g id="line2d_3">
      <g>
       <use style="stroke:#000000;stroke-width:0.5;" x="315.260446429" xlink:href="#mc7db9fdffb" y="266.4"/>
      </g>
     </g>
     <g id="line2d_4">
      <g>
       <use style="stroke:#000000;stroke-width:0.5;" x="315.260446429" xlink:href="#m5a7d422ac3" y="7.2"/>
      </g>
     </g>
     <g id="text_2">
      <!-- 10 -->
      <defs>
       <path d="
M7.90625 6.79688
L22.5 6.79688
L22.5 53.7969
L10.9062 53.7969
L10.9062 59.0938
Q15.2969 59.9062 18.5469 61.0469
Q21.7969 62.2031 24.4062 63.7969
L30.7031 63.7969
L30.7031 6.79688
L43.9062 6.79688
L43.9062 0
L7.90625 0
z
" id="SourceSansPro-Regular-31"/>
      </defs>
      <g transform="translate(310.034821429 278.944375)scale(0.12 -0.12)">
       <use xlink:href="#SourceSansPro-Regular-31"/>
       <use x="49.69999694824219" xlink:href="#SourceSansPro-Regular-30"/>
      </g>
     </g>
    </g>
    <g id="xtick_3">
     <g id="line2d_5">
      <g>
       <use style="stroke:#000000;stroke-width:0.5;" x="363.089017857" xlink:href="#mc7db9fdffb" y="266.4"/>
      </g>
     </g>
     <g id="line2d_6">
      <g>
       <use style="stroke:#000000;stroke-width:0.5;" x="363.089017857" xlink:href="#m5a7d422ac3" y="7.2"/>
      </g>
     </g>
     <g id="text_3">
      <!-- 20 -->
      <defs>
       <path d="
M4 4.90625
Q11.2031 12.0938 16.7969 17.8906
Q22.4062 23.7031 26.2031 28.6406
Q30 33.5938 32 37.75
Q34 41.9062 34 45.7969
Q34 51.2969 31 54.7969
Q28 58.2969 21.9062 58.2969
Q17.9062 58.2969 14.5 56.0469
Q11.0938 53.7969 8.29688 50.5938
L3.59375 55.2969
Q7.59375 59.7031 12.0938 62.3438
Q16.5938 65 22.9062 65
Q31.7969 65 36.8906 59.8438
Q42 54.7031 42 46.2031
Q42 41.7031 40.0469 37.1406
Q38.0938 32.5938 34.6406 27.75
Q31.2031 22.9062 26.4531 17.6562
Q21.7031 12.4062 16 6.5
Q18.5938 6.70312 21.3906 6.89062
Q24.2031 7.09375 26.7031 7.09375
L45.2031 7.09375
L45.2031 0
L4 0
z
" id="SourceSansPro-Regular-32"/>
      </defs>
      <g transform="translate(357.604642857 278.944375)scale(0.12 -0.12)">
       <use xlink:href="#SourceSansPro-Regular-32"/>
       <use x="49.69999694824219" xlink:href="#SourceSansPro-Regular-30"/>
      </g>
     </g>
    </g>
    <g id="xtick_4">
     <g id="line2d_7">
      <g>
       <use style="stroke:#000000;stroke-width:0.5;" x="410.917589286" xlink:href="#mc7db9fdffb" y="266.4"/>
      </g>
     </g>
     <g id="line2d_8">
      <g>
       <use style="stroke:#000000;stroke-width:0.5;" x="410.917589286" xlink:href="#m5a7d422ac3" y="7.2"/>
      </g>
     </g>
     <g id="text_4">
      <!-- 30 -->
      <defs>
       <path d="
M6.79688 13.2031
Q9.70312 10.2031 13.5469 7.89062
Q17.4062 5.59375 23.0938 5.59375
Q28.9062 5.59375 32.5938 8.75
Q36.2969 11.9062 36.2969 17.2969
Q36.2969 20.0938 35.25 22.4375
Q34.2031 24.7969 31.7969 26.5
Q29.4062 28.2031 25.5 29.0938
Q21.5938 30 15.9062 30
L15.9062 36.2969
Q21 36.2969 24.4531 37.1875
Q27.9062 38.0938 30.0469 39.6875
Q32.2031 41.2969 33.0938 43.5
Q34 45.7031 34 48.2031
Q34 52.9062 31.0469 55.5938
Q28.0938 58.2969 23 58.2969
Q19 58.2969 15.6406 56.5
Q12.2969 54.7031 9.40625 51.7969
L5 57
Q8.70312 60.5 13.1406 62.75
Q17.5938 65 23.2969 65
Q27.5 65 31 63.8906
Q34.5 62.7969 37.0469 60.75
Q39.5938 58.7031 41 55.7031
Q42.4062 52.7031 42.4062 48.7969
Q42.4062 43 39.2031 39.2969
Q36 35.5938 30.7969 33.5938
L30.7969 33.2031
Q33.7031 32.5 36.2031 31.1406
Q38.7031 29.7969 40.5938 27.75
Q42.5 25.7031 43.5469 23
Q44.5938 20.2969 44.5938 17
Q44.5938 12.7969 42.9375 9.39062
Q41.2969 6 38.4375 3.64062
Q35.5938 1.29688 31.7969 0.046875
Q28 -1.20312 23.5938 -1.20312
Q19.7969 -1.20312 16.6406 -0.453125
Q13.5 0.296875 10.8906 1.54688
Q8.29688 2.79688 6.25 4.39062
Q4.20312 6 2.59375 7.79688
z
" id="SourceSansPro-Regular-33"/>
      </defs>
      <g transform="translate(405.373214286 278.944375)scale(0.12 -0.12)">
       <use xlink:href="#SourceSansPro-Regular-33"/>
       <use x="49.69999694824219" xlink:href="#SourceSansPro-Regular-30"/>
      </g>
     </g>
    </g>
    <g id="xtick_5">
     <g id="line2d_9">
      <g>
       <use style="stroke:#000000;stroke-width:0.5;" x="458.746160714" xlink:href="#mc7db9fdffb" y="266.4"/>
      </g>
     </g>
     <g id="line2d_10">
      <g>
       <use style="stroke:#000000;stroke-width:0.5;" x="458.746160714" xlink:href="#m5a7d422ac3" y="7.2"/>
      </g>
     </g>
     <g id="text_5">
      <!-- 40 -->
      <defs>
       <path d="
M30.4062 24.2031
L30.4062 42.7031
Q30.4062 45.2969 30.5469 48.8438
Q30.7031 52.4062 30.9062 55
L30.5 55
Q29.2969 52.7031 28 50.5
Q26.7031 48.2969 25.2969 46
L10.4062 24.2031
z

M46.9062 17.5938
L38.2031 17.5938
L38.2031 0
L30.4062 0
L30.4062 17.5938
L1.70312 17.5938
L1.70312 23
L29 63.7969
L38.2031 63.7969
L38.2031 24.2031
L46.9062 24.2031
z
" id="SourceSansPro-Regular-34"/>
      </defs>
      <g transform="translate(453.148348214 278.944375)scale(0.12 -0.12)">
       <use xlink:href="#SourceSansPro-Regular-34"/>
       <use x="49.69999694824219" xlink:href="#SourceSansPro-Regular-30"/>
      </g>
     </g>
    </g>
    <g id="xtick_6">
     <g id="line2d_11">
      <g>
       <use style="stroke:#000000;stroke-width:0.5;" x="506.574732143" xlink:href="#mc7db9fdffb" y="266.4"/>
      </g>
     </g>
     <g id="line2d_12">
      <g>
       <use style="stroke:#000000;stroke-width:0.5;" x="506.574732143" xlink:href="#m5a7d422ac3" y="7.2"/>
      </g>
     </g>
     <g id="text_6">
      <!-- 50 -->
      <defs>
       <path d="
M6.5 12.9062
Q9.29688 10 13.1406 7.79688
Q17 5.59375 22.5938 5.59375
Q25.5 5.59375 28.0469 6.64062
Q30.5938 7.70312 32.5 9.59375
Q34.4062 11.5 35.5 14.2031
Q36.5938 16.9062 36.5938 20.2031
Q36.5938 26.7969 32.8906 30.5
Q29.2031 34.2031 23 34.2031
Q19.7031 34.2031 17.3438 33.2031
Q15 32.2031 12.0938 30.2969
L7.70312 33.0938
L9.79688 63.7969
L41.7031 63.7969
L41.7031 56.7031
L17 56.7031
L15.2969 37.7969
Q17.5938 39 19.8906 39.7031
Q22.2031 40.4062 25.0938 40.4062
Q29.2031 40.4062 32.7969 39.2031
Q36.4062 38 39.0938 35.5469
Q41.7969 33.0938 43.3438 29.3438
Q44.9062 25.5938 44.9062 20.4062
Q44.9062 15.2031 43.0938 11.2031
Q41.2969 7.20312 38.2969 4.45312
Q35.2969 1.70312 31.4375 0.25
Q27.5938 -1.20312 23.4062 -1.20312
Q19.5938 -1.20312 16.4375 -0.453125
Q13.2969 0.296875 10.75 1.5
Q8.20312 2.70312 6.14062 4.25
Q4.09375 5.79688 2.5 7.5
z
" id="SourceSansPro-Regular-35"/>
      </defs>
      <g transform="translate(501.024732143 278.944375)scale(0.12 -0.12)">
       <use xlink:href="#SourceSansPro-Regular-35"/>
       <use x="49.69999694824219" xlink:href="#SourceSansPro-Regular-30"/>
      </g>
     </g>
    </g>
    <g id="xtick_7">
     <g id="line2d_13">
      <g>
       <use style="stroke:#000000;stroke-width:0.5;" x="554.403303571" xlink:href="#mc7db9fdffb" y="266.4"/>
      </g>
     </g>
     <g id="line2d_14">
      <g>
       <use style="stroke:#000000;stroke-width:0.5;" x="554.403303571" xlink:href="#m5a7d422ac3" y="7.2"/>
      </g>
     </g>
     <g id="text_7">
      <!-- 60 -->
      <defs>
       <path d="
M26.7969 5.29688
Q29.2031 5.29688 31.2031 6.29688
Q33.2031 7.29688 34.7031 9.14062
Q36.2031 11 37.0469 13.5469
Q37.9062 16.0938 37.9062 19.2969
Q37.9062 25.5938 35 29.1875
Q32.0938 32.7969 26.0938 32.7969
Q23.0938 32.7969 19.5469 30.8438
Q16 28.9062 12.7969 24.4062
Q13.5938 15 17.1406 10.1406
Q20.7031 5.29688 26.7969 5.29688
M39.9062 53.0938
Q37.9062 55.4062 35.1562 56.75
Q32.4062 58.0938 29.4062 58.0938
Q26.0938 58.0938 23.0938 56.6875
Q20.0938 55.2969 17.7969 52.0938
Q15.5 48.9062 14.0938 43.75
Q12.7031 38.5938 12.5938 31
Q15.5938 34.7031 19.5938 36.8438
Q23.5938 39 27.5 39
Q35.7969 39 40.75 34.0938
Q45.7031 29.2031 45.7031 19.2969
Q45.7031 14.7031 44.2031 10.9531
Q42.7031 7.20312 40.0938 4.5
Q37.5 1.79688 34.0938 0.296875
Q30.7031 -1.20312 26.7969 -1.20312
Q22.0938 -1.20312 18.0938 0.6875
Q14.0938 2.59375 11.1406 6.4375
Q8.20312 10.2969 6.5 16.0469
Q4.79688 21.7969 4.79688 29.5
Q4.79688 39.0938 6.79688 45.8438
Q8.79688 52.5938 12.1875 56.8438
Q15.5938 61.0938 19.9375 63.0469
Q24.2969 65 29.0938 65
Q34.2969 65 38.0469 63.0469
Q41.7969 61.0938 44.5 58.2031
z
" id="SourceSansPro-Regular-36"/>
      </defs>
      <g transform="translate(548.991116071 278.944375)scale(0.12 -0.12)">
       <use xlink:href="#SourceSansPro-Regular-36"/>
       <use x="49.69999694824219" xlink:href="#SourceSansPro-Regular-30"/>
      </g>
     </g>
    </g>
    <g id="xtick_8">
     <g id="line2d_15">
      <g>
       <use style="stroke:#000000;stroke-width:0.5;" x="602.231875" xlink:href="#mc7db9fdffb" y="266.4"/>
      </g>
     </g>
     <g id="line2d_16">
      <g>
       <use style="stroke:#000000;stroke-width:0.5;" x="602.231875" xlink:href="#m5a7d422ac3" y="7.2"/>
      </g>
     </g>
     <g id="text_8">
      <!-- 70 -->
      <defs>
       <path d="
M17.7031 0
Q18.0938 9 19.2969 16.5
Q20.5 24 22.6406 30.75
Q24.7969 37.5 28.1406 43.7969
Q31.5 50.0938 36.2031 56.7031
L4.40625 56.7031
L4.40625 63.7969
L45.5 63.7969
L45.5 58.7031
Q39.7969 51.5 36.25 44.8906
Q32.7031 38.2969 30.5938 31.4375
Q28.5 24.5938 27.5469 16.9375
Q26.5938 9.29688 26.2031 0
L17.7031 0
z
" id="SourceSansPro-Regular-37"/>
      </defs>
      <g transform="translate(596.79625 278.944375)scale(0.12 -0.12)">
       <use xlink:href="#SourceSansPro-Regular-37"/>
       <use x="49.69999694824219" xlink:href="#SourceSansPro-Regular-30"/>
      </g>
     </g>
    </g>
    <g id="text_9">
     <!-- Percentage of users -->
     <defs>
      <path d="
M6 49.5938
L20.7031 49.5938
L20.7031 20.7031
Q20.7031 15.2969 22.2031 13.2969
Q23.7031 11.2969 26.9062 11.2969
Q29.7031 11.2969 31.5938 12.5938
Q33.5 13.9062 35.7031 16.7969
L35.7031 49.5938
L50.4062 49.5938
L50.4062 0
L38.4062 0
L37.2969 6.90625
L37 6.90625
Q33.7969 3.09375 30.1406 0.9375
Q26.5 -1.20312 21.4062 -1.20312
Q13.2969 -1.20312 9.64062 4.09375
Q6 9.40625 6 18.7969
z
" id="SourceSansPro-Bold-75"/>
      <path d="
M6.5 49.5938
L18.5 49.5938
L19.5 43.2969
L19.9062 43.2969
Q23.0938 46.2969 26.8906 48.5469
Q30.7031 50.7969 35.7969 50.7969
Q43.9062 50.7969 47.5469 45.5
Q51.2031 40.2031 51.2031 30.7969
L51.2031 0
L36.5 0
L36.5 28.9062
Q36.5 34.2969 35.0469 36.2969
Q33.5938 38.2969 30.4062 38.2969
Q27.5938 38.2969 25.5938 37.0469
Q23.5938 35.7969 21.2031 33.5
L21.2031 0
L6.5 0
z
" id="SourceSansPro-Bold-6e"/>
      <path d="
M8.5 38.0938
L1.70312 38.0938
L1.70312 49
L9.29688 49.5938
L11 62.7969
L23.2031 62.7969
L23.2031 49.5938
L35.0938 49.5938
L35.0938 38.0938
L23.2031 38.0938
L23.2031 18.2031
Q23.2031 14 24.9531 12.1406
Q26.7031 10.2969 29.5938 10.2969
Q30.7969 10.2969 32.0469 10.5938
Q33.2969 10.9062 34.2969 11.2969
L36.5938 0.59375
Q34.5938 0 31.8906 -0.59375
Q29.2031 -1.20312 25.5938 -1.20312
Q21 -1.20312 17.75 0.1875
Q14.5 1.59375 12.4531 4.09375
Q10.4062 6.59375 9.45312 10.1406
Q8.5 13.7031 8.5 18
z
" id="SourceSansPro-Bold-74"/>
      <path d="
M4.70312 13.7969
Q4.70312 21.5938 11.2969 26
Q17.9062 30.4062 32.5938 31.9062
Q32.4062 35.2031 30.5938 37.1406
Q28.7969 39.0938 24.7969 39.0938
Q21.5938 39.0938 18.3906 37.8906
Q15.2031 36.7031 11.5938 34.5938
L6.40625 44.2969
Q11.2031 47.2031 16.4531 49
Q21.7031 50.7969 27.5938 50.7969
Q37.2031 50.7969 42.25 45.3438
Q47.2969 39.9062 47.2969 28.4062
L47.2969 0
L35.2969 0
L34.2031 5.09375
L33.9062 5.09375
Q30.7031 2.29688 27.1406 0.546875
Q23.5938 -1.20312 19.4062 -1.20312
Q16 -1.20312 13.2969 -0.046875
Q10.5938 1.09375 8.6875 3.14062
Q6.79688 5.20312 5.75 7.89062
Q4.70312 10.5938 4.70312 13.7969
M18.7031 14.9062
Q18.7031 12.5 20.25 11.3438
Q21.7969 10.2031 24.4062 10.2031
Q27 10.2031 28.7969 11.2969
Q30.5938 12.4062 32.5938 14.4062
L32.5938 23.0938
Q24.7031 22 21.7031 19.8906
Q18.7031 17.7969 18.7031 14.9062" id="SourceSansPro-Bold-61"/>
      <path d="
M3.59375 24.7969
Q3.59375 31 5.59375 35.8438
Q7.59375 40.7031 10.9375 44
Q14.2969 47.2969 18.6875 49.0469
Q23.0938 50.7969 27.7969 50.7969
Q32.5 50.7969 36.8438 49.0469
Q41.2031 47.2969 44.5469 44
Q47.9062 40.7031 49.9062 35.8438
Q51.9062 31 51.9062 24.7969
Q51.9062 18.5938 49.9062 13.75
Q47.9062 8.90625 44.5469 5.59375
Q41.2031 2.29688 36.8438 0.546875
Q32.5 -1.20312 27.7969 -1.20312
Q23.0938 -1.20312 18.6875 0.546875
Q14.2969 2.29688 10.9375 5.59375
Q7.59375 8.90625 5.59375 13.75
Q3.59375 18.5938 3.59375 24.7969
M18.7031 24.7969
Q18.7031 18.2969 20.9531 14.5
Q23.2031 10.7031 27.7969 10.7031
Q32.2969 10.7031 34.5938 14.5
Q36.9062 18.2969 36.9062 24.7969
Q36.9062 31.2969 34.5938 35.0938
Q32.2969 38.9062 27.7969 38.9062
Q23.2031 38.9062 20.9531 35.0938
Q18.7031 31.2969 18.7031 24.7969" id="SourceSansPro-Bold-6f"/>
      <path d="
M3.59375 24.7969
Q3.59375 30.7969 5.59375 35.6406
Q7.59375 40.5 10.8438 43.8438
Q14.0938 47.2031 18.2969 49
Q22.5 50.7969 27 50.7969
Q32.2969 50.7969 36.25 49
Q40.2031 47.2031 42.8438 44
Q45.5 40.7969 46.7969 36.4375
Q48.0938 32.0938 48.0938 27
Q48.0938 25 47.8906 23.3438
Q47.7031 21.7031 47.5 20.7969
L17.7969 20.7969
Q18.7969 15.0938 22.25 12.5469
Q25.7031 10 30.7031 10
Q36 10 41.4062 13.2969
L46.2969 4.40625
Q42.5 1.79688 37.8438 0.296875
Q33.2031 -1.20312 28.7031 -1.20312
Q23.4062 -1.20312 18.7969 0.546875
Q14.2031 2.29688 10.7969 5.64062
Q7.40625 9 5.5 13.7969
Q3.59375 18.5938 3.59375 24.7969
M35.5938 29.9062
Q35.5938 34.2031 33.6875 36.8906
Q31.7969 39.5938 27.2969 39.5938
Q23.7969 39.5938 21.1406 37.25
Q18.5 34.9062 17.7031 29.9062
z
" id="SourceSansPro-Bold-65"/>
      <path d="
M7.70312 65.2031
L31.5 65.2031
Q36.7969 65.2031 41.4375 64.1406
Q46.0938 63.0938 49.5469 60.6406
Q53 58.2031 55 54.1406
Q57 50.0938 57 44.2031
Q57 38.5 54.9531 34.2969
Q52.9062 30.0938 49.4062 27.3906
Q45.9062 24.7031 41.2969 23.3906
Q36.7031 22.0938 31.5 22.0938
L22.4062 22.0938
L22.4062 0
L7.70312 0
z

M30.5938 33.7969
Q42.5938 33.7969 42.5938 44.2031
Q42.5938 49.2969 39.5469 51.3906
Q36.5 53.5 30.5938 53.5
L22.4062 53.5
L22.4062 33.7969
z
" id="SourceSansPro-Bold-50"/>
      <path d="
M6.5 49.5938
L18.5 49.5938
L19.5 40.9062
L19.9062 40.9062
Q22.5938 46 26.3906 48.3906
Q30.2031 50.7969 34 50.7969
Q36.0938 50.7969 37.4375 50.5469
Q38.7969 50.2969 39.9062 49.7969
L37.5 37.0938
Q36.0938 37.5 34.8906 37.7031
Q33.7031 37.9062 32.0938 37.9062
Q29.2969 37.9062 26.25 35.9062
Q23.2031 33.9062 21.2031 28.7969
L21.2031 0
L6.5 0
z
" id="SourceSansPro-Bold-72"/>
      <path id="SourceSansPro-Bold-20"/>
      <path d="
M34.5 58.7031
Q31.7031 59.7031 29.4062 59.7031
Q26.7031 59.7031 25.2031 58.0469
Q23.7031 56.4062 23.7031 52.5938
L23.7031 49.5938
L32.5938 49.5938
L32.5938 38.0938
L23.7031 38.0938
L23.7031 0
L9 0
L9 38.0938
L2.40625 38.0938
L2.40625 49
L9 49.5
L9 52.2031
Q9 56.0938 9.95312 59.5938
Q10.9062 63.0938 13.0938 65.6875
Q15.2969 68.2969 18.7969 69.7969
Q22.2969 71.2969 27.2969 71.2969
Q30.4062 71.2969 32.9531 70.6875
Q35.5 70.0938 37.2031 69.5
z
" id="SourceSansPro-Bold-66"/>
      <path d="
M15.5 -6.20312
Q15.5 -9 18.5 -10.4531
Q21.5 -11.9062 26.5 -11.9062
Q31.5 -11.9062 34.7031 -10.1562
Q37.9062 -8.40625 37.9062 -5.79688
Q37.9062 -3.5 35.9531 -2.70312
Q34 -1.90625 30.2969 -1.90625
L25.2031 -1.90625
Q22.5938 -1.90625 21 -1.75
Q19.4062 -1.59375 18.2031 -1.29688
Q15.5 -3.70312 15.5 -6.20312
M3.40625 -8.5
Q3.40625 -2.5 10.5 1.5
L10.5 1.90625
Q8.5 3.20312 7.20312 5.20312
Q5.90625 7.20312 5.90625 10.2969
Q5.90625 13 7.5 15.4531
Q9.09375 17.9062 11.5 19.5938
L11.5 20
Q8.90625 21.7969 6.84375 25.1406
Q4.79688 28.5 4.79688 32.9062
Q4.79688 37.4062 6.5 40.75
Q8.20312 44.0938 11.0469 46.3438
Q13.9062 48.5938 17.5938 49.6875
Q21.2969 50.7969 25.2969 50.7969
Q29.7031 50.7969 33 49.5938
L51.0938 49.5938
L51.0938 38.9062
L43.2031 38.9062
Q43.9062 37.7969 44.3438 36.0938
Q44.7969 34.4062 44.7969 32.4062
Q44.7969 28.0938 43.2969 24.9375
Q41.7969 21.7969 39.1406 19.75
Q36.5 17.7031 32.9531 16.7031
Q29.4062 15.7031 25.2969 15.7031
Q22.4062 15.7031 19.2969 16.7031
Q18.2969 15.9062 17.8906 15.0938
Q17.5 14.2969 17.5 13
Q17.5 11.0938 19.1406 10.1875
Q20.7969 9.29688 25 9.29688
L33 9.29688
Q42.2031 9.29688 47.0469 6.34375
Q51.9062 3.40625 51.9062 -3.29688
Q51.9062 -7.20312 49.9531 -10.4531
Q48 -13.7031 44.3906 -16.0469
Q40.7969 -18.4062 35.6875 -19.75
Q30.5938 -21.0938 24.2031 -21.0938
Q19.7969 -21.0938 16.0469 -20.3438
Q12.2969 -19.5938 9.4375 -18.0938
Q6.59375 -16.5938 5 -14.1875
Q3.40625 -11.7969 3.40625 -8.5
M25.2969 24.5938
Q28.2031 24.5938 30.1406 26.6406
Q32.0938 28.7031 32.0938 32.9062
Q32.0938 36.7969 30.1406 38.8438
Q28.2031 40.9062 25.2969 40.9062
Q22.4062 40.9062 20.4531 38.9062
Q18.5 36.9062 18.5 32.9062
Q18.5 28.7031 20.4531 26.6406
Q22.4062 24.5938 25.2969 24.5938" id="SourceSansPro-Bold-67"/>
      <path d="
M8.70312 14.9062
Q12.0938 12.2969 15.1875 11
Q18.2969 9.70312 21.5 9.70312
Q24.7969 9.70312 26.2969 10.7969
Q27.7969 11.9062 27.7969 13.9062
Q27.7969 15.0938 26.9375 16.0469
Q26.0938 17 24.6406 17.7969
Q23.2031 18.5938 21.3906 19.25
Q19.5938 19.9062 17.7031 20.7031
Q15.4062 21.5938 13.0938 22.7969
Q10.7969 24 8.89062 25.75
Q7 27.5 5.79688 29.8438
Q4.59375 32.2031 4.59375 35.2969
Q4.59375 38.7031 5.9375 41.5938
Q7.29688 44.5 9.79688 46.5
Q12.2969 48.5 15.7969 49.6406
Q19.2969 50.7969 23.5938 50.7969
Q29.2969 50.7969 33.5938 48.8438
Q37.9062 46.9062 41.0938 44.5
L34.5 35.7031
Q31.7969 37.7031 29.1875 38.7969
Q26.5938 39.9062 24 39.9062
Q18.4062 39.9062 18.4062 36
Q18.4062 34.7969 19.2031 33.9375
Q20 33.0938 21.3438 32.3906
Q22.7031 31.7031 24.4531 31.0469
Q26.2031 30.4062 28.0938 29.7031
Q30.5 28.7969 32.8438 27.6406
Q35.2031 26.5 37.1406 24.7969
Q39.0938 23.0938 40.2969 20.6406
Q41.5 18.2031 41.5 14.7969
Q41.5 11.4062 40.2031 8.5
Q38.9062 5.59375 36.2969 3.4375
Q33.7031 1.29688 29.8906 0.046875
Q26.0938 -1.20312 21.0938 -1.20312
Q16.2031 -1.20312 11.0469 0.6875
Q5.90625 2.59375 2.09375 5.70312
z
" id="SourceSansPro-Bold-73"/>
      <path d="
M3.59375 24.7969
Q3.59375 31 5.6875 35.8438
Q7.79688 40.7031 11.3438 44
Q14.9062 47.2969 19.5938 49.0469
Q24.2969 50.7969 29.4062 50.7969
Q34 50.7969 37.7031 49.25
Q41.4062 47.7031 43.9062 45.0938
L37.2031 36
Q33.7031 38.9062 30.2969 38.9062
Q24.9062 38.9062 21.7969 35.0938
Q18.7031 31.2969 18.7031 24.7969
Q18.7031 18.2969 21.8438 14.5
Q25 10.7031 29.7969 10.7031
Q32.5 10.7031 34.7031 11.7969
Q36.9062 12.9062 38.7031 14.2969
L44.5938 5
Q41 1.79688 36.5938 0.296875
Q32.2031 -1.20312 28.0938 -1.20312
Q22.9062 -1.20312 18.4531 0.546875
Q14 2.29688 10.7031 5.59375
Q7.40625 8.90625 5.5 13.75
Q3.59375 18.5938 3.59375 24.7969" id="SourceSansPro-Bold-63"/>
     </defs>
     <g transform="translate(372.1795 306.671125)scale(0.144 -0.144)">
      <use xlink:href="#SourceSansPro-Bold-50"/>
      <use x="60.59999084472656" xlink:href="#SourceSansPro-Bold-65"/>
      <use x="112.39997863769531" xlink:href="#SourceSansPro-Bold-72"/>
      <use x="152.19996643066406" xlink:href="#SourceSansPro-Bold-63"/>
      <use x="198.89996337890625" xlink:href="#SourceSansPro-Bold-65"/>
      <use x="250.699951171875" xlink:href="#SourceSansPro-Bold-6e"/>
      <use x="307.8999481201172" xlink:href="#SourceSansPro-Bold-74"/>
      <use x="346.19993591308594" xlink:href="#SourceSansPro-Bold-61"/>
      <use x="399.5999298095703" xlink:href="#SourceSansPro-Bold-67"/>
      <use x="452.9999237060547" xlink:href="#SourceSansPro-Bold-65"/>
      <use x="504.79991149902344" xlink:href="#SourceSansPro-Bold-20"/>
      <use x="525.5998992919922" xlink:href="#SourceSansPro-Bold-6f"/>
      <use x="581.0998840332031" xlink:href="#SourceSansPro-Bold-66"/>
      <use x="615.1998748779297" xlink:href="#SourceSansPro-Bold-20"/>
      <use x="635.9998626708984" xlink:href="#SourceSansPro-Bold-75"/>
      <use x="692.7998504638672" xlink:href="#SourceSansPro-Bold-73"/>
      <use x="737.0998382568359" xlink:href="#SourceSansPro-Bold-65"/>
      <use x="788.8998260498047" xlink:href="#SourceSansPro-Bold-72"/>
      <use x="828.6998138427734" xlink:href="#SourceSansPro-Bold-73"/>
     </g>
    </g>
   </g>
   <g id="matplotlib.axis_2">
    <g id="ytick_1">
     <g id="line2d_17">
      <defs>
       <path d="
M0 0
L4 0" id="md7965d1ba0" style="stroke:#000000;stroke-width:0.5;"/>
      </defs>
      <g>
       <use style="stroke:#000000;stroke-width:0.5;" x="267.431875" xlink:href="#md7965d1ba0" y="244.8"/>
      </g>
     </g>
     <g id="line2d_18">
      <defs>
       <path d="
M0 0
L-4 0" id="md9a1c1a7cd" style="stroke:#000000;stroke-width:0.5;"/>
      </defs>
      <g>
       <use style="stroke:#000000;stroke-width:0.5;" x="602.231875" xlink:href="#md9a1c1a7cd" y="244.8"/>
      </g>
     </g>
     <g id="text_10">
      <!-- Never heard of it -->
      <defs>
       <path d="
M1.20312 48.5938
L9.70312 48.5938
L18.9062 21
Q20 17.4062 21.1406 13.7969
Q22.2969 10.2031 23.4062 6.70312
L23.7969 6.70312
Q24.9062 10.2031 26 13.7969
Q27.0938 17.4062 28.2031 21
L37.4062 48.5938
L45.5 48.5938
L28.2969 0
L18.7031 0
z
" id="SourceSansPro-Regular-76"/>
       <path d="
M8.20312 71.2031
L16.4062 71.2031
L16.4062 51.7969
L16.0938 41.7969
Q19.5938 45.0938 23.3906 47.4375
Q27.2031 49.7969 32.2969 49.7969
Q40 49.7969 43.5469 45
Q47.0938 40.2031 47.0938 30.7969
L47.0938 0
L38.9062 0
L38.9062 29.7031
Q38.9062 36.5938 36.7031 39.6406
Q34.5 42.7031 29.7031 42.7031
Q25.9062 42.7031 23 40.7969
Q20.0938 38.9062 16.4062 35.2031
L16.4062 0
L8.20312 0
z
" id="SourceSansPro-Regular-68"/>
       <path d="
M4.59375 24.2031
Q4.59375 30.2969 6.4375 35.0469
Q8.29688 39.7969 11.3906 43.0938
Q14.5 46.4062 18.5469 48.0938
Q22.5938 49.7969 27.0938 49.7969
Q31.5938 49.7969 35.6406 48.0938
Q39.7031 46.4062 42.7969 43.0938
Q45.9062 39.7969 47.75 35.0469
Q49.5938 30.2969 49.5938 24.2031
Q49.5938 18.2031 47.75 13.4531
Q45.9062 8.70312 42.7969 5.45312
Q39.7031 2.20312 35.6406 0.5
Q31.5938 -1.20312 27.0938 -1.20312
Q22.5938 -1.20312 18.5469 0.5
Q14.5 2.20312 11.3906 5.45312
Q8.29688 8.70312 6.4375 13.4531
Q4.59375 18.2031 4.59375 24.2031
M13.0938 24.2031
Q13.0938 20 14.0938 16.5938
Q15.0938 13.2031 16.9375 10.75
Q18.7969 8.29688 21.3906 6.9375
Q24 5.59375 27.0938 5.59375
Q30.2031 5.59375 32.7969 6.9375
Q35.4062 8.29688 37.25 10.75
Q39.0938 13.2031 40.0938 16.5938
Q41.0938 20 41.0938 24.2031
Q41.0938 28.4062 40.0938 31.8438
Q39.0938 35.2969 37.25 37.7969
Q35.4062 40.2969 32.7969 41.6406
Q30.2031 43 27.0938 43
Q24 43 21.3906 41.6406
Q18.7969 40.2969 16.9375 37.7969
Q15.0938 35.2969 14.0938 31.8438
Q13.0938 28.4062 13.0938 24.2031" id="SourceSansPro-Regular-6f"/>
       <path d="
M9.59375 41.9062
L2.40625 41.9062
L2.40625 48.0938
L10 48.5938
L11 62.2031
L17.9062 62.2031
L17.9062 48.5938
L31 48.5938
L31 41.9062
L17.9062 41.9062
L17.9062 14.9062
Q17.9062 10.4062 19.5469 7.95312
Q21.2031 5.5 25.4062 5.5
Q26.7031 5.5 28.2031 5.89062
Q29.7031 6.29688 30.9062 6.79688
L32.5 0.59375
Q30.5 -0.09375 28.1406 -0.640625
Q25.7969 -1.20312 23.5 -1.20312
Q19.5938 -1.20312 16.9375 0
Q14.2969 1.20312 12.6406 3.29688
Q11 5.40625 10.2969 8.40625
Q9.59375 11.4062 9.59375 15
z
" id="SourceSansPro-Regular-74"/>
       <path d="
M30.0938 64.5
Q27.4062 65.7031 24.5938 65.7031
Q17.7969 65.7031 17.7969 56.2969
L17.7969 48.5938
L28.0938 48.5938
L28.0938 41.9062
L17.7969 41.9062
L17.7969 0
L9.59375 0
L9.59375 41.9062
L3 41.9062
L3 48.0938
L9.59375 48.5938
L9.59375 56.2969
Q9.59375 63.7969 13.0469 68.0938
Q16.5 72.4062 23.7969 72.4062
Q26.0938 72.4062 28.1406 71.9531
Q30.2031 71.5 31.9062 70.7969
z
" id="SourceSansPro-Regular-66"/>
       <path id="SourceSansPro-Regular-20"/>
       <path d="
M8.20312 48.5938
L15 48.5938
L15.7031 39.7969
L16 39.7969
Q18.5 44.4062 22.0469 47.0938
Q25.5938 49.7969 29.7969 49.7969
Q32.7031 49.7969 35 48.7969
L33.4062 41.5938
Q32.2031 42 31.2031 42.2031
Q30.2031 42.4062 28.7031 42.4062
Q25.5938 42.4062 22.25 39.9062
Q18.9062 37.4062 16.4062 31.2031
L16.4062 0
L8.20312 0
z
" id="SourceSansPro-Regular-72"/>
       <path d="
M5.79688 12.5938
Q5.79688 20.5938 12.9375 24.8438
Q20.0938 29.0938 35.7031 30.7969
Q35.7031 33.0938 35.25 35.2969
Q34.7969 37.5 33.6406 39.2031
Q32.5 40.9062 30.5938 41.9531
Q28.7031 43 25.7031 43
Q21.4062 43 17.75 41.3906
Q14.0938 39.7969 11.2031 37.7969
L7.90625 43.5
Q11.2969 45.7031 16.1875 47.75
Q21.0938 49.7969 27 49.7969
Q35.9062 49.7969 39.9062 44.3438
Q43.9062 38.9062 43.9062 29.7969
L43.9062 0
L37.0938 0
L36.4062 5.79688
L36.2031 5.79688
Q32.7031 2.90625 28.6406 0.84375
Q24.5938 -1.20312 20.0938 -1.20312
Q13.9062 -1.20312 9.84375 2.39062
Q5.79688 6 5.79688 12.5938
M13.9062 13.2031
Q13.9062 9 16.3438 7.20312
Q18.7969 5.40625 22.4062 5.40625
Q25.9062 5.40625 29.0469 7.04688
Q32.2031 8.70312 35.7031 11.9062
L35.7031 25.4062
Q29.5938 24.5938 25.3906 23.5
Q21.2031 22.4062 18.6406 20.9062
Q16.0938 19.4062 15 17.4531
Q13.9062 15.5 13.9062 13.2031" id="SourceSansPro-Regular-61"/>
       <path d="
M12.4062 58.5938
Q10 58.5938 8.34375 60.0938
Q6.70312 61.5938 6.70312 63.9062
Q6.70312 66.2969 8.34375 67.75
Q10 69.2031 12.4062 69.2031
Q14.7969 69.2031 16.4375 67.75
Q18.0938 66.2969 18.0938 63.9062
Q18.0938 61.5938 16.4375 60.0938
Q14.7969 58.5938 12.4062 58.5938
M8.20312 48.5938
L16.4062 48.5938
L16.4062 0
L8.20312 0
z
" id="SourceSansPro-Regular-69"/>
       <path d="
M4.70312 24.2031
Q4.70312 30.0938 6.45312 34.8438
Q8.20312 39.5938 11.0938 42.8906
Q14 46.2031 17.7969 48
Q21.5938 49.7969 25.7969 49.7969
Q30 49.7969 33.0938 48.2969
Q36.2031 46.7969 39.4062 44.2031
L39 52.5
L39 71.2031
L47.2969 71.2031
L47.2969 0
L40.5 0
L39.7969 5.70312
L39.5 5.70312
Q36.5938 2.90625 32.8438 0.84375
Q29.0938 -1.20312 24.7969 -1.20312
Q15.5938 -1.20312 10.1406 5.39062
Q4.70312 12 4.70312 24.2031
M13.2031 24.2969
Q13.2031 15.5 16.7031 10.5938
Q20.2031 5.70312 26.5938 5.70312
Q30 5.70312 33 7.34375
Q36 9 39 12.4062
L39 37.7969
Q35.9062 40.5938 33.0469 41.75
Q30.2031 42.9062 27.2031 42.9062
Q24.2969 42.9062 21.75 41.5469
Q19.2031 40.2031 17.2969 37.75
Q15.4062 35.2969 14.2969 31.8906
Q13.2031 28.5 13.2031 24.2969" id="SourceSansPro-Regular-64"/>
       <path d="
M4.59375 24.2031
Q4.59375 30.2031 6.4375 34.9531
Q8.29688 39.7031 11.3438 43
Q14.4062 46.2969 18.2969 48.0469
Q22.2031 49.7969 26.4062 49.7969
Q31 49.7969 34.6406 48.1875
Q38.2969 46.5938 40.75 43.5938
Q43.2031 40.5938 44.5 36.3906
Q45.7969 32.2031 45.7969 27
Q45.7969 24.2969 45.5 22.5
L12.7031 22.5
Q13.2031 14.5938 17.5469 10
Q21.9062 5.40625 28.9062 5.40625
Q32.4062 5.40625 35.3438 6.45312
Q38.2969 7.5 41 9.20312
L43.9062 3.79688
Q40.7031 1.79688 36.7969 0.296875
Q32.9062 -1.20312 27.9062 -1.20312
Q23 -1.20312 18.75 0.546875
Q14.5 2.29688 11.3438 5.54688
Q8.20312 8.79688 6.39062 13.5
Q4.59375 18.2031 4.59375 24.2031
M38.5938 27.9062
Q38.5938 35.4062 35.4375 39.3438
Q32.2969 43.2969 26.5938 43.2969
Q24 43.2969 21.6406 42.25
Q19.2969 41.2031 17.3906 39.25
Q15.5 37.2969 14.25 34.4375
Q13 31.5938 12.5938 27.9062
z
" id="SourceSansPro-Regular-65"/>
       <path d="
M9 65.5938
L17.5938 65.5938
L41.2969 24.4062
L48.4062 10.7969
L48.7969 10.7969
Q48.5 15.7969 48.1406 21.1406
Q47.7969 26.5 47.7969 31.7031
L47.7969 65.5938
L55.7031 65.5938
L55.7031 0
L47.0938 0
L23.2969 41.2969
L16.2031 54.7969
L15.7969 54.7969
Q16.2031 49.7969 16.5469 44.6406
Q16.9062 39.5 16.9062 34.2969
L16.9062 0
L9 0
z
" id="SourceSansPro-Regular-4e"/>
      </defs>
      <g transform="translate(180.414375 247.8421875)scale(0.12 -0.12)">
       <use xlink:href="#SourceSansPro-Regular-4e"/>
       <use x="64.69999694824219" xlink:href="#SourceSansPro-Regular-65"/>
       <use x="114.29998779296875" xlink:href="#SourceSansPro-Regular-76"/>
       <use x="160.99998474121094" xlink:href="#SourceSansPro-Regular-65"/>
       <use x="210.5999755859375" xlink:href="#SourceSansPro-Regular-72"/>
       <use x="245.2999725341797" xlink:href="#SourceSansPro-Regular-20"/>
       <use x="265.4999694824219" xlink:href="#SourceSansPro-Regular-68"/>
       <use x="319.89996337890625" xlink:href="#SourceSansPro-Regular-65"/>
       <use x="369.4999542236328" xlink:href="#SourceSansPro-Regular-61"/>
       <use x="420.699951171875" xlink:href="#SourceSansPro-Regular-72"/>
       <use x="455.3999481201172" xlink:href="#SourceSansPro-Regular-64"/>
       <use x="510.8999328613281" xlink:href="#SourceSansPro-Regular-20"/>
       <use x="531.0999298095703" xlink:href="#SourceSansPro-Regular-6f"/>
       <use x="585.2999267578125" xlink:href="#SourceSansPro-Regular-66"/>
       <use x="614.4999237060547" xlink:href="#SourceSansPro-Regular-20"/>
       <use x="634.6999206542969" xlink:href="#SourceSansPro-Regular-69"/>
       <use x="659.2999114990234" xlink:href="#SourceSansPro-Regular-74"/>
      </g>
     </g>
    </g>
    <g id="ytick_2">
     <g id="line2d_19">
      <g>
       <use style="stroke:#000000;stroke-width:0.5;" x="267.431875" xlink:href="#md7965d1ba0" y="201.6"/>
      </g>
     </g>
     <g id="line2d_20">
      <g>
       <use style="stroke:#000000;stroke-width:0.5;" x="602.231875" xlink:href="#md9a1c1a7cd" y="201.6"/>
      </g>
     </g>
     <g id="text_11">
      <!-- It is beyond my control (e.g. system administrators) -->
      <defs>
       <path d="
M4.59375 24.2031
Q4.59375 30.2969 6.5 35.0469
Q8.40625 39.7969 11.5938 43.0938
Q14.7969 46.4062 19.0469 48.0938
Q23.2969 49.7969 28 49.7969
Q32.7969 49.7969 36.25 48.0469
Q39.7031 46.2969 42.2031 44
L38.0938 38.7031
Q35.9062 40.5938 33.5469 41.7969
Q31.2031 43 28.2969 43
Q25 43 22.2031 41.6406
Q19.4062 40.2969 17.4062 37.7969
Q15.4062 35.2969 14.25 31.8438
Q13.0938 28.4062 13.0938 24.2031
Q13.0938 20 14.1875 16.5938
Q15.2969 13.2031 17.25 10.75
Q19.2031 8.29688 22 6.9375
Q24.7969 5.59375 28.0938 5.59375
Q31.5938 5.59375 34.4375 7.04688
Q37.2969 8.5 39.5 10.5
L43.2031 5.09375
Q39.9062 2.20312 35.8438 0.5
Q31.7969 -1.20312 27.4062 -1.20312
Q22.5938 -1.20312 18.3906 0.5
Q14.2031 2.20312 11.1406 5.45312
Q8.09375 8.70312 6.34375 13.4531
Q4.59375 18.2031 4.59375 24.2031" id="SourceSansPro-Regular-63"/>
       <path d="
M11.7031 -8.20312
Q11.7031 -12.0938 15.4531 -14.3906
Q19.2031 -16.7031 25.7969 -16.7031
Q29.2969 -16.7031 32.1406 -15.8438
Q35 -15 37 -13.6406
Q39 -12.2969 40.0938 -10.5
Q41.2031 -8.70312 41.2031 -6.79688
Q41.2031 -3.40625 38.7031 -2.09375
Q36.2031 -0.796875 31.4062 -0.796875
L23 -0.796875
Q21.5938 -0.796875 19.9375 -0.640625
Q18.2969 -0.5 16.7031 0
Q14.0938 -1.90625 12.8906 -4
Q11.7031 -6.09375 11.7031 -8.20312
M4.5 -9.29688
Q4.5 -6.20312 6.39062 -3.39062
Q8.29688 -0.59375 11.5938 1.70312
L11.5938 2.09375
Q9.79688 3.20312 8.54688 5.14062
Q7.29688 7.09375 7.29688 10
Q7.29688 13.0938 9 15.3906
Q10.7031 17.7031 12.5938 19
L12.5938 19.4062
Q10.2031 21.4062 8.25 24.75
Q6.29688 28.0938 6.29688 32.5
Q6.29688 36.5 7.75 39.7031
Q9.20312 42.9062 11.7031 45.1562
Q14.2031 47.4062 17.5469 48.5938
Q20.9062 49.7969 24.5938 49.7969
Q26.5938 49.7969 28.3438 49.4375
Q30.0938 49.0938 31.5 48.5938
L48.4062 48.5938
L48.4062 42.2969
L38.4062 42.2969
Q40.0938 40.5938 41.25 38
Q42.4062 35.4062 42.4062 32.2969
Q42.4062 28.4062 41 25.25
Q39.5938 22.0938 37.1875 19.9375
Q34.7969 17.7969 31.5469 16.5938
Q28.2969 15.4062 24.5938 15.4062
Q22.7969 15.4062 20.8906 15.8438
Q19 16.2969 17.2969 17.0938
Q16 16 15.0938 14.6406
Q14.2031 13.2969 14.2031 11.2969
Q14.2031 9 16 7.5
Q17.7969 6 22.7969 6
L32.2031 6
Q40.7031 6 44.9531 3.25
Q49.2031 0.5 49.2031 -5.59375
Q49.2031 -9 47.5 -12.0469
Q45.7969 -15.0938 42.5938 -17.3906
Q39.4062 -19.7031 34.8438 -21.0469
Q30.2969 -22.4062 24.5938 -22.4062
Q20.0938 -22.4062 16.3906 -21.5469
Q12.7031 -20.7031 10.0469 -19
Q7.40625 -17.2969 5.95312 -14.8906
Q4.5 -12.5 4.5 -9.29688
M24.5938 20.9062
Q26.7031 20.9062 28.5469 21.7031
Q30.4062 22.5 31.8438 24
Q33.2969 25.5 34.0938 27.6406
Q34.9062 29.7969 34.9062 32.5
Q34.9062 37.9062 31.9062 40.8438
Q28.9062 43.7969 24.5938 43.7969
Q20.2969 43.7969 17.2969 40.8438
Q14.2969 37.9062 14.2969 32.5
Q14.2969 29.7969 15.0938 27.6406
Q15.9062 25.5 17.3438 24
Q18.7969 22.5 20.6406 21.7031
Q22.5 20.9062 24.5938 20.9062" id="SourceSansPro-Regular-67"/>
       <path d="
M9 65.5938
L17.2969 65.5938
L17.2969 0
L9 0
z
" id="SourceSansPro-Regular-49"/>
       <path d="
M8.20312 48.5938
L15 48.5938
L15.7031 41.5938
L16 41.5938
Q19.2031 45.0938 22.9531 47.4375
Q26.7031 49.7969 31.0938 49.7969
Q36.7031 49.7969 39.8438 47.3438
Q43 44.9062 44.5 40.5
Q48.2969 44.7031 52.1406 47.25
Q56 49.7969 60.5 49.7969
Q68 49.7969 71.6406 45
Q75.2969 40.2031 75.2969 30.7969
L75.2969 0
L67.0938 0
L67.0938 29.7031
Q67.0938 36.5938 64.8906 39.6406
Q62.7031 42.7031 58.0938 42.7031
Q52.5938 42.7031 45.9062 35.2031
L45.9062 0
L37.7031 0
L37.7031 29.7031
Q37.7031 36.5938 35.5 39.6406
Q33.2969 42.7031 28.5938 42.7031
Q23.0938 42.7031 16.4062 35.2031
L16.4062 0
L8.20312 0
z
" id="SourceSansPro-Regular-6d"/>
       <path d="
M6.90625 11
Q10.0938 8.40625 13.4375 6.79688
Q16.7969 5.20312 21.2031 5.20312
Q26 5.20312 28.3906 7.39062
Q30.7969 9.59375 30.7969 12.7969
Q30.7969 14.7031 29.7969 16.0938
Q28.7969 17.5 27.25 18.5469
Q25.7031 19.5938 23.7031 20.3906
Q21.7031 21.2031 19.7031 22
Q17.0938 22.9062 14.5 24.0469
Q11.9062 25.2031 9.84375 26.8438
Q7.79688 28.5 6.5 30.7031
Q5.20312 32.9062 5.20312 36
Q5.20312 38.9062 6.34375 41.4531
Q7.5 44 9.64062 45.8438
Q11.7969 47.7031 14.8906 48.75
Q18 49.7969 21.9062 49.7969
Q26.5 49.7969 30.3438 48.1875
Q34.2031 46.5938 37 44.2969
L33.0938 39.0938
Q30.5938 41 27.8906 42.2031
Q25.2031 43.4062 22 43.4062
Q17.4062 43.4062 15.25 41.2969
Q13.0938 39.2031 13.0938 36.4062
Q13.0938 34.7031 14 33.4531
Q14.9062 32.2031 16.4062 31.25
Q17.9062 30.2969 19.8438 29.5469
Q21.7969 28.7969 23.9062 28
Q26.5 27 29.1406 25.8906
Q31.7969 24.7969 33.8906 23.1406
Q36 21.5 37.3438 19.0938
Q38.7031 16.7031 38.7031 13.2969
Q38.7031 10.2969 37.5469 7.6875
Q36.4062 5.09375 34.1562 3.09375
Q31.9062 1.09375 28.5469 -0.046875
Q25.2031 -1.20312 20.9062 -1.20312
Q15.7031 -1.20312 11 0.6875
Q6.29688 2.59375 2.79688 5.5
z
" id="SourceSansPro-Regular-73"/>
       <path d="
M4.90625 -13.4062
Q5.70312 -13.5938 6.70312 -13.8438
Q7.70312 -14.0938 8.59375 -14.0938
Q12.7969 -14.0938 15.4375 -11.1406
Q18.0938 -8.20312 19.5938 -3.70312
L20.7031 -0.09375
L1.20312 48.5938
L9.70312 48.5938
L19.5938 21.7031
Q20.7031 18.5 21.9531 14.9531
Q23.2031 11.4062 24.2969 8
L24.7031 8
Q25.7969 11.2969 26.7969 14.8906
Q27.7969 18.5 28.7969 21.7031
L37.5 48.5938
L45.5 48.5938
L27.2031 -4
Q25.9062 -7.59375 24.2969 -10.6875
Q22.7031 -13.7969 20.5 -16.0469
Q18.2969 -18.2969 15.5 -19.5938
Q12.7031 -20.9062 9 -20.9062
Q7.29688 -20.9062 5.89062 -20.6562
Q4.5 -20.4062 3.29688 -19.9062
L4.90625 -13.4062
z
" id="SourceSansPro-Regular-79"/>
       <path d="
M6.5 5
Q6.5 7.90625 8.25 9.65625
Q10 11.4062 12.5 11.4062
Q14.9062 11.4062 16.6562 9.65625
Q18.4062 7.90625 18.4062 5
Q18.4062 2.29688 16.6562 0.546875
Q14.9062 -1.20312 12.5 -1.20312
Q10 -1.20312 8.25 0.546875
Q6.5 2.29688 6.5 5" id="SourceSansPro-Regular-2e"/>
       <path d="
M8.20312 48.5938
L15 48.5938
L15.7031 41.5938
L16 41.5938
Q19.5 45.0938 23.3438 47.4375
Q27.2031 49.7969 32.2969 49.7969
Q40 49.7969 43.5469 45
Q47.0938 40.2031 47.0938 30.7969
L47.0938 0
L38.9062 0
L38.9062 29.7031
Q38.9062 36.5938 36.7031 39.6406
Q34.5 42.7031 29.7031 42.7031
Q25.9062 42.7031 23 40.7969
Q20.0938 38.9062 16.4062 35.2031
L16.4062 0
L8.20312 0
z
" id="SourceSansPro-Regular-6e"/>
       <path d="
M8.20312 71.2031
L16.4062 71.2031
L16.4062 51.7969
L16.2031 43
Q19.5 45.9062 23.3906 47.8438
Q27.2969 49.7969 31.4062 49.7969
Q36.0938 49.7969 39.6875 48.0469
Q43.2969 46.2969 45.75 43.0469
Q48.2031 39.7969 49.4531 35.25
Q50.7031 30.7031 50.7031 25.0938
Q50.7031 18.9062 49 14
Q47.2969 9.09375 44.3906 5.6875
Q41.5 2.29688 37.7031 0.546875
Q33.9062 -1.20312 29.7031 -1.20312
Q26.2969 -1.20312 22.6406 0.34375
Q19 1.90625 15.7969 4.79688
L15.5 4.79688
L14.7969 0
L8.20312 0
z

M16.4062 10.7969
Q19.5938 8 22.75 6.84375
Q25.9062 5.70312 28.2969 5.70312
Q31.2969 5.70312 33.8438 7.04688
Q36.4062 8.40625 38.25 10.8438
Q40.0938 13.2969 41.1406 16.8906
Q42.2031 20.5 42.2031 25
Q42.2031 29 41.5 32.2969
Q40.7969 35.5938 39.25 37.9375
Q37.7031 40.2969 35.25 41.5938
Q32.7969 42.9062 29.4062 42.9062
Q23.5 42.9062 16.4062 36.2969
z
" id="SourceSansPro-Regular-62"/>
       <path d="
M3.79688 -15.2031
Q9.59375 -5.59375 12.4375 5.34375
Q15.2969 16.2969 15.2969 27.7969
Q15.2969 39.2969 12.4375 50.25
Q9.59375 61.2031 3.79688 70.7969
L8.90625 73.2031
Q15.0938 63.0938 18.5938 52.0469
Q22.0938 41 22.0938 27.7969
Q22.0938 14.5938 18.5938 3.5
Q15.0938 -7.59375 8.90625 -17.5938
L3.79688 -15.2031
z
" id="SourceSansPro-Regular-29"/>
       <path d="
M21.4062 -17.5938
Q15.2031 -7.59375 11.7031 3.5
Q8.20312 14.5938 8.20312 27.7969
Q8.20312 41 11.7031 52.0469
Q15.2031 63.0938 21.4062 73.2031
L26.5 70.7969
Q20.7031 61.2031 17.8438 50.25
Q15 39.2969 15 27.7969
Q15 16.2969 17.8438 5.34375
Q20.7031 -5.59375 26.5 -15.2031
L21.4062 -17.5938
z
" id="SourceSansPro-Regular-28"/>
       <path d="
M8.20312 71.2031
L16.4062 71.2031
L16.4062 9.20312
Q16.4062 7.20312 17.0938 6.39062
Q17.7969 5.59375 18.7031 5.59375
Q19.0938 5.59375 19.4375 5.59375
Q19.7969 5.59375 20.5 5.79688
L21.5938 -0.40625
Q20.7969 -0.796875 19.6875 -1
Q18.5938 -1.20312 16.9062 -1.20312
Q12.2031 -1.20312 10.2031 1.59375
Q8.20312 4.40625 8.20312 9.79688
z
" id="SourceSansPro-Regular-6c"/>
      </defs>
      <g transform="translate(7.2 204.6478125)scale(0.12 -0.12)">
       <use xlink:href="#SourceSansPro-Regular-49"/>
       <use x="26.29998779296875" xlink:href="#SourceSansPro-Regular-74"/>
       <use x="60.0999755859375" xlink:href="#SourceSansPro-Regular-20"/>
       <use x="80.29997253417969" xlink:href="#SourceSansPro-Regular-69"/>
       <use x="104.89996337890625" xlink:href="#SourceSansPro-Regular-73"/>
       <use x="146.79995727539062" xlink:href="#SourceSansPro-Regular-20"/>
       <use x="166.9999542236328" xlink:href="#SourceSansPro-Regular-62"/>
       <use x="222.49993896484375" xlink:href="#SourceSansPro-Regular-65"/>
       <use x="272.0999298095703" xlink:href="#SourceSansPro-Regular-79"/>
       <use x="318.7999267578125" xlink:href="#SourceSansPro-Regular-6f"/>
       <use x="372.9999237060547" xlink:href="#SourceSansPro-Regular-6e"/>
       <use x="427.6999206542969" xlink:href="#SourceSansPro-Regular-64"/>
       <use x="483.1999053955078" xlink:href="#SourceSansPro-Regular-20"/>
       <use x="503.39990234375" xlink:href="#SourceSansPro-Regular-6d"/>
       <use x="586.2998962402344" xlink:href="#SourceSansPro-Regular-79"/>
       <use x="632.9998931884766" xlink:href="#SourceSansPro-Regular-20"/>
       <use x="653.1998901367188" xlink:href="#SourceSansPro-Regular-63"/>
       <use x="698.7998809814453" xlink:href="#SourceSansPro-Regular-6f"/>
       <use x="752.9998779296875" xlink:href="#SourceSansPro-Regular-6e"/>
       <use x="807.6998748779297" xlink:href="#SourceSansPro-Regular-74"/>
       <use x="841.4998626708984" xlink:href="#SourceSansPro-Regular-72"/>
       <use x="876.1998596191406" xlink:href="#SourceSansPro-Regular-6f"/>
       <use x="930.3998565673828" xlink:href="#SourceSansPro-Regular-6c"/>
       <use x="955.8998413085938" xlink:href="#SourceSansPro-Regular-20"/>
       <use x="976.0998382568359" xlink:href="#SourceSansPro-Regular-28"/>
       <use x="1006.3998260498047" xlink:href="#SourceSansPro-Regular-65"/>
       <use x="1055.9998168945312" xlink:href="#SourceSansPro-Regular-2e"/>
       <use x="1080.8998107910156" xlink:href="#SourceSansPro-Regular-67"/>
       <use x="1131.2998046875" xlink:href="#SourceSansPro-Regular-2e"/>
       <use x="1156.1997985839844" xlink:href="#SourceSansPro-Regular-20"/>
       <use x="1176.3997955322266" xlink:href="#SourceSansPro-Regular-73"/>
       <use x="1218.299789428711" xlink:href="#SourceSansPro-Regular-79"/>
       <use x="1264.9997863769531" xlink:href="#SourceSansPro-Regular-73"/>
       <use x="1306.8997802734375" xlink:href="#SourceSansPro-Regular-74"/>
       <use x="1340.6997680664062" xlink:href="#SourceSansPro-Regular-65"/>
       <use x="1390.2997589111328" xlink:href="#SourceSansPro-Regular-6d"/>
       <use x="1473.1997528076172" xlink:href="#SourceSansPro-Regular-20"/>
       <use x="1493.3997497558594" xlink:href="#SourceSansPro-Regular-61"/>
       <use x="1544.5997467041016" xlink:href="#SourceSansPro-Regular-64"/>
       <use x="1600.0997314453125" xlink:href="#SourceSansPro-Regular-6d"/>
       <use x="1682.9997253417969" xlink:href="#SourceSansPro-Regular-69"/>
       <use x="1707.5997161865234" xlink:href="#SourceSansPro-Regular-6e"/>
       <use x="1762.2997131347656" xlink:href="#SourceSansPro-Regular-69"/>
       <use x="1786.8997039794922" xlink:href="#SourceSansPro-Regular-73"/>
       <use x="1828.7996978759766" xlink:href="#SourceSansPro-Regular-74"/>
       <use x="1862.5996856689453" xlink:href="#SourceSansPro-Regular-72"/>
       <use x="1897.2996826171875" xlink:href="#SourceSansPro-Regular-61"/>
       <use x="1948.4996795654297" xlink:href="#SourceSansPro-Regular-74"/>
       <use x="1982.2996673583984" xlink:href="#SourceSansPro-Regular-6f"/>
       <use x="2036.4996643066406" xlink:href="#SourceSansPro-Regular-72"/>
       <use x="2071.199661254883" xlink:href="#SourceSansPro-Regular-73"/>
       <use x="2113.099655151367" xlink:href="#SourceSansPro-Regular-29"/>
      </g>
     </g>
    </g>
    <g id="ytick_3">
     <g id="line2d_21">
      <g>
       <use style="stroke:#000000;stroke-width:0.5;" x="267.431875" xlink:href="#md7965d1ba0" y="158.4"/>
      </g>
     </g>
     <g id="line2d_22">
      <g>
       <use style="stroke:#000000;stroke-width:0.5;" x="602.231875" xlink:href="#md9a1c1a7cd" y="158.4"/>
      </g>
     </g>
     <g id="text_12">
      <!-- Other -->
      <defs>
       <path d="
M33.2031 -1.20312
Q27 -1.20312 21.8438 1.1875
Q16.7031 3.59375 13 8.04688
Q9.29688 12.5 7.25 18.8438
Q5.20312 25.2031 5.20312 33.0938
Q5.20312 41 7.25 47.25
Q9.29688 53.5 13 57.8438
Q16.7031 62.2031 21.8438 64.5
Q27 66.7969 33.2031 66.7969
Q39.4062 66.7969 44.5469 64.4375
Q49.7031 62.0938 53.4531 57.75
Q57.2031 53.4062 59.25 47.1562
Q61.2969 40.9062 61.2969 33.0938
Q61.2969 25.2031 59.25 18.8438
Q57.2031 12.5 53.4531 8.04688
Q49.7031 3.59375 44.5469 1.1875
Q39.4062 -1.20312 33.2031 -1.20312
M33.2031 6.09375
Q37.5938 6.09375 41.1406 8
Q44.7031 9.90625 47.25 13.4531
Q49.7969 17 51.1875 21.9531
Q52.5938 26.9062 52.5938 33.0938
Q52.5938 39.2031 51.1875 44.0938
Q49.7969 49 47.25 52.3906
Q44.7031 55.7969 41.1406 57.6406
Q37.5938 59.5 33.2031 59.5
Q28.7969 59.5 25.25 57.6406
Q21.7031 55.7969 19.1406 52.3906
Q16.5938 49 15.1875 44.0938
Q13.7969 39.2031 13.7969 33.0938
Q13.7969 26.9062 15.1875 21.9531
Q16.5938 17 19.1406 13.4531
Q21.7031 9.90625 25.25 8
Q28.7969 6.09375 33.2031 6.09375" id="SourceSansPro-Regular-4f"/>
      </defs>
      <g transform="translate(235.351875 161.4421875)scale(0.12 -0.12)">
       <use xlink:href="#SourceSansPro-Regular-4f"/>
       <use x="66.39999389648438" xlink:href="#SourceSansPro-Regular-74"/>
       <use x="100.19998168945312" xlink:href="#SourceSansPro-Regular-68"/>
       <use x="154.5999755859375" xlink:href="#SourceSansPro-Regular-65"/>
       <use x="204.19996643066406" xlink:href="#SourceSansPro-Regular-72"/>
      </g>
     </g>
    </g>
    <g id="ytick_4">
     <g id="line2d_23">
      <g>
       <use style="stroke:#000000;stroke-width:0.5;" x="267.431875" xlink:href="#md7965d1ba0" y="115.2"/>
      </g>
     </g>
     <g id="line2d_24">
      <g>
       <use style="stroke:#000000;stroke-width:0.5;" x="602.231875" xlink:href="#md9a1c1a7cd" y="115.2"/>
      </g>
     </g>
     <g id="text_13">
      <!-- A lot of my code doesn't work in Python 3 -->
      <defs>
       <path d="
M36.9062 26.7031
L33.7969 36.7031
Q32 42.2031 30.3906 47.6406
Q28.7969 53.0938 27.2031 58.7969
L26.7969 58.7969
Q25.2969 53.0938 23.6875 47.6406
Q22.0938 42.2031 20.2969 36.7031
L17.2031 26.7031
z

M39 20
L15.0938 20
L8.79688 0
L0.296875 0
L22.5 65.5938
L31.9062 65.5938
L54.0938 0
L45.2031 0
z
" id="SourceSansPro-Regular-41"/>
       <path d="
M9 65.5938
L29.0938 65.5938
Q34.5 65.5938 39 64.5938
Q43.5 63.5938 46.6406 61.3438
Q49.7969 59.0938 51.5469 55.3906
Q53.2969 51.7031 53.2969 46.2969
Q53.2969 41.0938 51.5469 37.2969
Q49.7969 33.5 46.5938 31
Q43.4062 28.5 38.9531 27.25
Q34.5 26 29.0938 26
L17.2969 26
L17.2969 0
L9 0
z

M28.0938 32.7969
Q36.7031 32.7969 40.8438 36.0469
Q45 39.2969 45 46.2969
Q45 53.4062 40.7969 56.1562
Q36.5938 58.9062 28.0938 58.9062
L17.2969 58.9062
L17.2969 32.7969
z
" id="SourceSansPro-Regular-50"/>
       <path d="
M2.40625 48.5938
L10.7969 48.5938
L18 20.5
Q18.7969 17 19.5 13.7031
Q20.2031 10.4062 20.9062 7
L21.2969 7
Q22.0938 10.4062 22.8906 13.75
Q23.7031 17.0938 24.5938 20.5
L32.0938 48.5938
L40.0938 48.5938
L47.7031 20.5
Q48.5938 17 49.4375 13.7031
Q50.2969 10.4062 51.0938 7
L51.5 7
Q52.2969 10.4062 53 13.7031
Q53.7031 17 54.5 20.5
L61.5938 48.5938
L69.4062 48.5938
L56.4062 0
L46.4062 0
L39.4062 26.0938
Q38.5 29.5938 37.75 33
Q37 36.4062 36.0938 40.0938
L35.7031 40.0938
Q34.9062 36.4062 34.0938 32.9531
Q33.2969 29.5 32.2969 26
L25.5 0
L15.9062 0
z
" id="SourceSansPro-Regular-77"/>
       <path d="
M8.20312 71.2031
L16.2969 71.2031
L16.2969 23
L16.5938 23
L37.2969 48.5938
L46.4062 48.5938
L30.0938 29.0938
L48.5938 0
L39.5938 0
L25.4062 23.4062
L16.2969 12.7969
L16.2969 0
L8.20312 0
z
" id="SourceSansPro-Regular-6b"/>
       <path d="
M8.29688 59.7969
L8 69
L16.7969 69
L16.5 59.7969
L14.9062 43.0938
L9.90625 43.0938
z
" id="SourceSansPro-Regular-27"/>
      </defs>
      <g transform="translate(57.301875 118.29)scale(0.12 -0.12)">
       <use xlink:href="#SourceSansPro-Regular-41"/>
       <use x="54.399993896484375" xlink:href="#SourceSansPro-Regular-20"/>
       <use x="74.59999084472656" xlink:href="#SourceSansPro-Regular-6c"/>
       <use x="100.0999755859375" xlink:href="#SourceSansPro-Regular-6f"/>
       <use x="154.2999725341797" xlink:href="#SourceSansPro-Regular-74"/>
       <use x="188.09996032714844" xlink:href="#SourceSansPro-Regular-20"/>
       <use x="208.29995727539062" xlink:href="#SourceSansPro-Regular-6f"/>
       <use x="262.4999542236328" xlink:href="#SourceSansPro-Regular-66"/>
       <use x="291.699951171875" xlink:href="#SourceSansPro-Regular-20"/>
       <use x="311.8999481201172" xlink:href="#SourceSansPro-Regular-6d"/>
       <use x="394.79994201660156" xlink:href="#SourceSansPro-Regular-79"/>
       <use x="441.49993896484375" xlink:href="#SourceSansPro-Regular-20"/>
       <use x="461.69993591308594" xlink:href="#SourceSansPro-Regular-63"/>
       <use x="507.2999267578125" xlink:href="#SourceSansPro-Regular-6f"/>
       <use x="561.4999237060547" xlink:href="#SourceSansPro-Regular-64"/>
       <use x="616.9999084472656" xlink:href="#SourceSansPro-Regular-65"/>
       <use x="666.5998992919922" xlink:href="#SourceSansPro-Regular-20"/>
       <use x="686.7998962402344" xlink:href="#SourceSansPro-Regular-64"/>
       <use x="742.2998809814453" xlink:href="#SourceSansPro-Regular-6f"/>
       <use x="796.4998779296875" xlink:href="#SourceSansPro-Regular-65"/>
       <use x="846.0998687744141" xlink:href="#SourceSansPro-Regular-73"/>
       <use x="887.9998626708984" xlink:href="#SourceSansPro-Regular-6e"/>
       <use x="942.6998596191406" xlink:href="#SourceSansPro-Regular-27"/>
       <use x="967.599853515625" xlink:href="#SourceSansPro-Regular-74"/>
       <use x="1001.3998413085938" xlink:href="#SourceSansPro-Regular-20"/>
       <use x="1021.5998382568359" xlink:href="#SourceSansPro-Regular-77"/>
       <use x="1093.3998260498047" xlink:href="#SourceSansPro-Regular-6f"/>
       <use x="1147.5998229980469" xlink:href="#SourceSansPro-Regular-72"/>
       <use x="1182.299819946289" xlink:href="#SourceSansPro-Regular-6b"/>
       <use x="1231.7998046875" xlink:href="#SourceSansPro-Regular-20"/>
       <use x="1251.9998016357422" xlink:href="#SourceSansPro-Regular-69"/>
       <use x="1276.5997924804688" xlink:href="#SourceSansPro-Regular-6e"/>
       <use x="1331.299789428711" xlink:href="#SourceSansPro-Regular-20"/>
       <use x="1351.4997863769531" xlink:href="#SourceSansPro-Regular-50"/>
       <use x="1409.0997772216797" xlink:href="#SourceSansPro-Regular-79"/>
       <use x="1455.7997741699219" xlink:href="#SourceSansPro-Regular-74"/>
       <use x="1489.5997619628906" xlink:href="#SourceSansPro-Regular-68"/>
       <use x="1543.999755859375" xlink:href="#SourceSansPro-Regular-6f"/>
       <use x="1598.1997528076172" xlink:href="#SourceSansPro-Regular-6e"/>
       <use x="1652.8997497558594" xlink:href="#SourceSansPro-Regular-20"/>
       <use x="1673.0997467041016" xlink:href="#SourceSansPro-Regular-33"/>
      </g>
     </g>
    </g>
    <g id="ytick_5">
     <g id="line2d_25">
      <g>
       <use style="stroke:#000000;stroke-width:0.5;" x="267.431875" xlink:href="#md7965d1ba0" y="72.0"/>
      </g>
     </g>
     <g id="line2d_26">
      <g>
       <use style="stroke:#000000;stroke-width:0.5;" x="602.231875" xlink:href="#md9a1c1a7cd" y="72.0"/>
      </g>
     </g>
     <g id="text_14">
      <!-- Some packages I need aren't supported -->
      <defs>
       <path d="
M9.20312 14.2969
Q12.7031 10.5938 17.4531 8.34375
Q22.2031 6.09375 27.2969 6.09375
Q33.7969 6.09375 37.3906 9.04688
Q41 12 41 16.7969
Q41 19.2969 40.1406 21.0469
Q39.2969 22.7969 37.8438 24.0469
Q36.4062 25.2969 34.4062 26.2969
Q32.4062 27.2969 30.0938 28.4062
L20.7031 32.5
Q18.4062 33.5 16 34.8906
Q13.5938 36.2969 11.6875 38.2969
Q9.79688 40.2969 8.59375 43.0469
Q7.40625 45.7969 7.40625 49.4062
Q7.40625 53.0938 8.95312 56.2969
Q10.5 59.5 13.25 61.8438
Q16 64.2031 19.75 65.5
Q23.5 66.7969 28 66.7969
Q33.9062 66.7969 38.9062 64.5469
Q43.9062 62.2969 47.4062 58.7031
L42.9062 53.2969
Q39.9062 56.2031 36.25 57.8438
Q32.5938 59.5 28 59.5
Q22.5 59.5 19.1406 56.9531
Q15.7969 54.4062 15.7969 49.9062
Q15.7969 47.5 16.75 45.8438
Q17.7031 44.2031 19.2969 42.9531
Q20.9062 41.7031 22.7969 40.75
Q24.7031 39.7969 26.7031 39
L36 35
Q38.7969 33.7969 41.2969 32.25
Q43.7969 30.7031 45.5938 28.6406
Q47.4062 26.5938 48.4531 23.8438
Q49.5 21.0938 49.5 17.5
Q49.5 13.5938 47.9531 10.1875
Q46.4062 6.79688 43.5 4.25
Q40.5938 1.70312 36.5 0.25
Q32.4062 -1.20312 27.2031 -1.20312
Q20.2969 -1.20312 14.3906 1.39062
Q8.5 4 4.20312 8.5
z
" id="SourceSansPro-Regular-53"/>
       <path d="
M16.4062 -4.09375
L16.4062 -20.5
L8.20312 -20.5
L8.20312 48.5938
L15 48.5938
L15.7031 43
L16 43
Q19.2969 45.7969 23.25 47.7969
Q27.2031 49.7969 31.5 49.7969
Q36.2031 49.7969 39.7969 48.0469
Q43.4062 46.2969 45.7969 43.0469
Q48.2031 39.7969 49.4531 35.25
Q50.7031 30.7031 50.7031 25
Q50.7031 18.7969 49 13.9375
Q47.2969 9.09375 44.3906 5.6875
Q41.5 2.29688 37.7031 0.546875
Q33.9062 -1.20312 29.7031 -1.20312
Q26.2969 -1.20312 22.9375 0.296875
Q19.5938 1.79688 16.2031 4.40625
z

M16.4062 10.7969
Q19.7031 8 22.7969 6.84375
Q25.9062 5.70312 28.2969 5.70312
Q31.2969 5.70312 33.8438 7.04688
Q36.4062 8.40625 38.25 10.8438
Q40.0938 13.2969 41.1406 16.8906
Q42.2031 20.5 42.2031 25
Q42.2031 29 41.5 32.2969
Q40.7969 35.5938 39.25 37.9375
Q37.7031 40.2969 35.25 41.5938
Q32.7969 42.9062 29.4062 42.9062
Q26.2969 42.9062 23.1406 41.2031
Q20 39.5 16.4062 36.2969
z
" id="SourceSansPro-Regular-70"/>
       <path d="
M7.5 48.5938
L15.7969 48.5938
L15.7969 18.9062
Q15.7969 12 17.9375 8.95312
Q20.0938 5.90625 24.9062 5.90625
Q28.7031 5.90625 31.5938 7.84375
Q34.5 9.79688 38 14.0938
L38 48.5938
L46.2031 48.5938
L46.2031 0
L39.4062 0
L38.7031 7.59375
L38.4062 7.59375
Q35 3.59375 31.25 1.1875
Q27.5 -1.20312 22.4062 -1.20312
Q14.5938 -1.20312 11.0469 3.59375
Q7.5 8.40625 7.5 17.7969
z
" id="SourceSansPro-Regular-75"/>
      </defs>
      <g transform="translate(65.728125 74.9278125)scale(0.12 -0.12)">
       <use xlink:href="#SourceSansPro-Regular-53"/>
       <use x="53.399993896484375" xlink:href="#SourceSansPro-Regular-6f"/>
       <use x="107.59999084472656" xlink:href="#SourceSansPro-Regular-6d"/>
       <use x="190.49998474121094" xlink:href="#SourceSansPro-Regular-65"/>
       <use x="240.0999755859375" xlink:href="#SourceSansPro-Regular-20"/>
       <use x="260.2999725341797" xlink:href="#SourceSansPro-Regular-70"/>
       <use x="315.7999572753906" xlink:href="#SourceSansPro-Regular-61"/>
       <use x="366.9999542236328" xlink:href="#SourceSansPro-Regular-63"/>
       <use x="412.5999450683594" xlink:href="#SourceSansPro-Regular-6b"/>
       <use x="462.0999298095703" xlink:href="#SourceSansPro-Regular-61"/>
       <use x="513.2999267578125" xlink:href="#SourceSansPro-Regular-67"/>
       <use x="563.6999206542969" xlink:href="#SourceSansPro-Regular-65"/>
       <use x="613.2999114990234" xlink:href="#SourceSansPro-Regular-73"/>
       <use x="655.1999053955078" xlink:href="#SourceSansPro-Regular-20"/>
       <use x="675.39990234375" xlink:href="#SourceSansPro-Regular-49"/>
       <use x="701.6998901367188" xlink:href="#SourceSansPro-Regular-20"/>
       <use x="721.8998870849609" xlink:href="#SourceSansPro-Regular-6e"/>
       <use x="776.5998840332031" xlink:href="#SourceSansPro-Regular-65"/>
       <use x="826.1998748779297" xlink:href="#SourceSansPro-Regular-65"/>
       <use x="875.7998657226562" xlink:href="#SourceSansPro-Regular-64"/>
       <use x="931.2998504638672" xlink:href="#SourceSansPro-Regular-20"/>
       <use x="951.4998474121094" xlink:href="#SourceSansPro-Regular-61"/>
       <use x="1002.6998443603516" xlink:href="#SourceSansPro-Regular-72"/>
       <use x="1037.3998413085938" xlink:href="#SourceSansPro-Regular-65"/>
       <use x="1086.9998321533203" xlink:href="#SourceSansPro-Regular-6e"/>
       <use x="1141.6998291015625" xlink:href="#SourceSansPro-Regular-27"/>
       <use x="1166.5998229980469" xlink:href="#SourceSansPro-Regular-74"/>
       <use x="1200.3998107910156" xlink:href="#SourceSansPro-Regular-20"/>
       <use x="1220.5998077392578" xlink:href="#SourceSansPro-Regular-73"/>
       <use x="1262.4998016357422" xlink:href="#SourceSansPro-Regular-75"/>
       <use x="1316.8997955322266" xlink:href="#SourceSansPro-Regular-70"/>
       <use x="1372.3997802734375" xlink:href="#SourceSansPro-Regular-70"/>
       <use x="1427.8997650146484" xlink:href="#SourceSansPro-Regular-6f"/>
       <use x="1482.0997619628906" xlink:href="#SourceSansPro-Regular-72"/>
       <use x="1516.7997589111328" xlink:href="#SourceSansPro-Regular-74"/>
       <use x="1550.5997467041016" xlink:href="#SourceSansPro-Regular-65"/>
       <use x="1600.1997375488281" xlink:href="#SourceSansPro-Regular-64"/>
      </g>
     </g>
    </g>
    <g id="ytick_6">
     <g id="line2d_27">
      <g>
       <use style="stroke:#000000;stroke-width:0.5;" x="267.431875" xlink:href="#md7965d1ba0" y="28.8"/>
      </g>
     </g>
     <g id="line2d_28">
      <g>
       <use style="stroke:#000000;stroke-width:0.5;" x="602.231875" xlink:href="#md9a1c1a7cd" y="28.8"/>
      </g>
     </g>
     <g id="text_15">
      <!-- No incentive -->
      <g transform="translate(201.129375 31.8421875)scale(0.12 -0.12)">
       <use xlink:href="#SourceSansPro-Regular-4e"/>
       <use x="64.69999694824219" xlink:href="#SourceSansPro-Regular-6f"/>
       <use x="118.89999389648438" xlink:href="#SourceSansPro-Regular-20"/>
       <use x="139.09999084472656" xlink:href="#SourceSansPro-Regular-69"/>
       <use x="163.69998168945312" xlink:href="#SourceSansPro-Regular-6e"/>
       <use x="218.3999786376953" xlink:href="#SourceSansPro-Regular-63"/>
       <use x="263.9999694824219" xlink:href="#SourceSansPro-Regular-65"/>
       <use x="313.59996032714844" xlink:href="#SourceSansPro-Regular-6e"/>
       <use x="368.2999572753906" xlink:href="#SourceSansPro-Regular-74"/>
       <use x="402.0999450683594" xlink:href="#SourceSansPro-Regular-69"/>
       <use x="426.69993591308594" xlink:href="#SourceSansPro-Regular-76"/>
       <use x="473.3999328613281" xlink:href="#SourceSansPro-Regular-65"/>
      </g>
     </g>
    </g>
   </g>
   <g id="text_16">
    <!--  1% -->
    <defs>
     <path d="
M18.4062 25.7969
Q11.5938 25.7969 7.54688 31.1875
Q3.5 36.5938 3.5 46.5938
Q3.5 56.5 7.54688 61.8438
Q11.5938 67.2031 18.4062 67.2031
Q25.0938 67.2031 29.1875 61.8438
Q33.2969 56.5 33.2969 46.5938
Q33.2969 36.5938 29.1875 31.1875
Q25.0938 25.7969 18.4062 25.7969
M18.4062 30.9062
Q22.2031 30.9062 24.5938 34.8438
Q27 38.7969 27 46.5938
Q27 54.4062 24.5938 58.25
Q22.2031 62.0938 18.4062 62.0938
Q14.5 62.0938 12.0938 58.25
Q9.70312 54.4062 9.70312 46.5938
Q9.70312 38.7969 12.0938 34.8438
Q14.5 30.9062 18.4062 30.9062
M20.1719 -1.20312
L56.375 66.7969
L61.9688 66.7969
L25.7812 -1.20312
z

M64.1562 -1.20312
Q57.3438 -1.20312 53.2969 4.1875
Q49.25 9.59375 49.25 19.5938
Q49.25 29.5 53.2969 34.8438
Q57.3438 40.2031 64.1562 40.2031
Q70.8438 40.2031 74.9375 34.8438
Q79.0469 29.5 79.0469 19.5938
Q79.0469 9.59375 74.9375 4.1875
Q70.8438 -1.20312 64.1562 -1.20312
M64.1562 3.90625
Q67.9531 3.90625 70.3438 7.84375
Q72.75 11.7969 72.75 19.5938
Q72.75 27.4062 70.3438 31.25
Q67.9531 35.0938 64.1562 35.0938
Q60.25 35.0938 57.8438 31.25
Q55.4531 27.4062 55.4531 19.5938
Q55.4531 11.7969 57.8438 7.84375
Q60.25 3.90625 64.1562 3.90625" id="SourceSansPro-Regular-25"/>
    </defs>
    <g transform="translate(281.3040946 247.334142187)scale(0.09996 -0.09996)">
     <use xlink:href="#SourceSansPro-Regular-20"/>
     <use x="20.199996948242188" xlink:href="#SourceSansPro-Regular-31"/>
     <use x="69.89999389648438" xlink:href="#SourceSansPro-Regular-25"/>
    </g>
   </g>
   <g id="text_17">
    <!-- 10% -->
    <g transform="translate(323.705358455 204.134142187)scale(0.09996 -0.09996)">
     <use xlink:href="#SourceSansPro-Regular-31"/>
     <use x="49.69999694824219" xlink:href="#SourceSansPro-Regular-30"/>
     <use x="99.39999389648438" xlink:href="#SourceSansPro-Regular-25"/>
    </g>
   </g>
   <g id="text_18">
    <!-- 14% -->
    <g transform="translate(342.775761736 160.934142187)scale(0.09996 -0.09996)">
     <use xlink:href="#SourceSansPro-Regular-31"/>
     <use x="49.69999694824219" xlink:href="#SourceSansPro-Regular-34"/>
     <use x="99.39999389648438" xlink:href="#SourceSansPro-Regular-25"/>
    </g>
   </g>
   <g id="text_19">
    <!-- 24% -->
    <g transform="translate(391.380455386 117.734142187)scale(0.09996 -0.09996)">
     <use xlink:href="#SourceSansPro-Regular-32"/>
     <use x="49.69999694824219" xlink:href="#SourceSansPro-Regular-34"/>
     <use x="99.39999389648438" xlink:href="#SourceSansPro-Regular-25"/>
    </g>
   </g>
   <g id="text_20">
    <!-- 34% -->
    <g transform="translate(436.336627129 74.5341421875)scale(0.09996 -0.09996)">
     <use xlink:href="#SourceSansPro-Regular-33"/>
     <use x="49.69999694824219" xlink:href="#SourceSansPro-Regular-34"/>
     <use x="99.39999389648438" xlink:href="#SourceSansPro-Regular-25"/>
    </g>
   </g>
   <g id="text_21">
    <!-- 62% -->
    <g transform="translate(571.465194545 31.3341421875)scale(0.09996 -0.09996)">
     <use xlink:href="#SourceSansPro-Regular-36"/>
     <use x="49.69999694824219" xlink:href="#SourceSansPro-Regular-32"/>
     <use x="99.39999389648438" xlink:href="#SourceSansPro-Regular-25"/>
    </g>
   </g>
  </g>
 </g>
 <defs>
  <clipPath id="pe916e73ece">
   <rect height="259.2" width="334.8" x="267.431875" y="7.2"/>
  </clipPath>
 </defs>
</svg>
